<?xml version="1.0" encoding="utf-8"?>
<!-- Generator: Adobe Illustrator 25.2.3, SVG Export Plug-In . SVG Version: 6.00 Build 0)  -->
<svg version="1.2" baseProfile="tiny" id="Слой_1"
	 xmlns="http://www.w3.org/2000/svg" xmlns:xlink="http://www.w3.org/1999/xlink" x="0px" y="0px" viewBox="0 0 288 324"
	 overflow="visible" xml:space="preserve">
<rect x="68.7" y="121.6" fill="#FFFFFF" width="27.5" height="27.5"/>
<rect x="68.7" y="121.6" fill="none" stroke="#FFFFFF" stroke-width="0.75" stroke-linecap="round" stroke-linejoin="round" stroke-miterlimit="10" width="27.5" height="27.5"/>
<rect x="96.2" y="121.6" fill="#FFFFFF" width="27.5" height="27.5"/>
<rect x="96.2" y="121.6" fill="none" stroke="#FFFFFF" stroke-width="0.75" stroke-linecap="round" stroke-linejoin="round" stroke-miterlimit="10" width="27.5" height="27.5"/>
<rect x="96.2" y="149.2" fill="#FFFFFF" width="27.5" height="27.5"/>
<rect x="96.2" y="149.2" fill="none" stroke="#FFFFFF" stroke-width="0.75" stroke-linecap="round" stroke-linejoin="round" stroke-miterlimit="10" width="27.5" height="27.5"/>
<rect x="123.7" y="121.6" fill="#FFFFFF" width="27.5" height="27.5"/>
<rect x="123.7" y="121.6" fill="none" stroke="#FFFFFF" stroke-width="0.75" stroke-linecap="round" stroke-linejoin="round" stroke-miterlimit="10" width="27.5" height="27.5"/>
<rect x="123.7" y="149.2" fill="#FFFFFF" width="27.5" height="27.5"/>
<rect x="123.7" y="149.2" fill="none" stroke="#FFFFFF" stroke-width="0.75" stroke-linecap="round" stroke-linejoin="round" stroke-miterlimit="10" width="27.5" height="27.5"/>
<rect x="123.7" y="176.7" fill="#FFFFFF" width="27.5" height="27.5"/>
<rect x="123.7" y="176.7" fill="none" stroke="#FFFFFF" stroke-width="0.75" stroke-linecap="round" stroke-linejoin="round" stroke-miterlimit="10" width="27.5" height="27.5"/>
<rect x="151.3" y="121.6" fill="#FFFFFF" width="27.5" height="27.5"/>
<rect x="151.3" y="121.6" fill="none" stroke="#FFFFFF" stroke-width="0.75" stroke-linecap="round" stroke-linejoin="round" stroke-miterlimit="10" width="27.5" height="27.5"/>
<rect x="151.3" y="149.2" fill="#FFFFFF" width="27.5" height="27.5"/>
<rect x="151.3" y="149.2" fill="none" stroke="#FFFFFF" stroke-width="0.75" stroke-linecap="round" stroke-linejoin="round" stroke-miterlimit="10" width="27.5" height="27.5"/>
<rect x="151.3" y="176.7" fill="#FFFFFF" width="27.5" height="27.5"/>
<rect x="151.3" y="176.7" fill="none" stroke="#FFFFFF" stroke-width="0.75" stroke-linecap="round" stroke-linejoin="round" stroke-miterlimit="10" width="27.5" height="27.5"/>
<rect x="151.3" y="204.2" fill="#FFFFFF" width="27.5" height="27.5"/>
<rect x="151.3" y="204.2" fill="none" stroke="#FFFFFF" stroke-width="0.75" stroke-linecap="round" stroke-linejoin="round" stroke-miterlimit="10" width="27.5" height="27.5"/>
<rect x="178.8" y="121.6" fill="#FFFFFF" width="27.5" height="27.5"/>
<rect x="178.8" y="121.6" fill="none" stroke="#FFFFFF" stroke-width="0.75" stroke-linecap="round" stroke-linejoin="round" stroke-miterlimit="10" width="27.5" height="27.5"/>
<rect x="178.8" y="149.2" fill="#FFFFFF" width="27.5" height="27.5"/>
<rect x="178.8" y="149.2" fill="none" stroke="#FFFFFF" stroke-width="0.75" stroke-linecap="round" stroke-linejoin="round" stroke-miterlimit="10" width="27.5" height="27.5"/>
<rect x="178.8" y="176.7" fill="#FFFFFF" width="27.5" height="27.5"/>
<rect x="178.8" y="176.7" fill="none" stroke="#FFFFFF" stroke-width="0.75" stroke-linecap="round" stroke-linejoin="round" stroke-miterlimit="10" width="27.5" height="27.5"/>
<rect x="178.8" y="204.2" fill="#FFFFFF" width="27.5" height="27.5"/>
<rect x="178.8" y="204.2" fill="none" stroke="#FFFFFF" stroke-width="0.75" stroke-linecap="round" stroke-linejoin="round" stroke-miterlimit="10" width="27.5" height="27.5"/>
<rect x="178.8" y="231.8" fill="#FFFFFF" width="27.5" height="27.5"/>
<rect x="178.8" y="231.8" fill="none" stroke="#FFFFFF" stroke-width="0.75" stroke-linecap="round" stroke-linejoin="round" stroke-miterlimit="10" width="27.5" height="27.5"/>
<rect x="206.3" y="121.6" fill="#FFFFFF" width="27.5" height="27.5"/>
<rect x="206.3" y="121.6" fill="none" stroke="#FFFFFF" stroke-width="0.75" stroke-linecap="round" stroke-linejoin="round" stroke-miterlimit="10" width="27.5" height="27.5"/>
<rect x="206.3" y="149.2" fill="#FFFFFF" width="27.5" height="27.5"/>
<rect x="206.3" y="149.2" fill="none" stroke="#FFFFFF" stroke-width="0.75" stroke-linecap="round" stroke-linejoin="round" stroke-miterlimit="10" width="27.5" height="27.5"/>
<rect x="206.3" y="176.7" fill="#FFFFFF" width="27.5" height="27.5"/>
<rect x="206.3" y="176.7" fill="none" stroke="#FFFFFF" stroke-width="0.75" stroke-linecap="round" stroke-linejoin="round" stroke-miterlimit="10" width="27.5" height="27.5"/>
<rect x="206.3" y="204.2" fill="#FFFFFF" width="27.5" height="27.5"/>
<rect x="206.3" y="204.2" fill="none" stroke="#FFFFFF" stroke-width="0.75" stroke-linecap="round" stroke-linejoin="round" stroke-miterlimit="10" width="27.5" height="27.5"/>
<rect x="206.3" y="231.8" fill="#FFFFFF" width="27.5" height="27.5"/>
<rect x="206.3" y="231.8" fill="none" stroke="#FFFFFF" stroke-width="0.75" stroke-linecap="round" stroke-linejoin="round" stroke-miterlimit="10" width="27.5" height="27.5"/>
<rect x="206.3" y="259.3" fill="#FFFFFF" width="27.5" height="27.5"/>
<rect x="206.3" y="259.3" fill="none" stroke="#FFFFFF" stroke-width="0.75" stroke-linecap="round" stroke-linejoin="round" stroke-miterlimit="10" width="27.5" height="27.5"/>
<path fill="#EDF8FB" d="M78.4,135.4c0-2.2,1.8-4.1,4.1-4.1c2.2,0,4.1,1.8,4.1,4.1c0,2.2-1.8,4.1-4.1,4.1
	C80.2,139.5,78.4,137.6,78.4,135.4"/>
<path fill="none" stroke="#EDF8FB" stroke-width="0.75" stroke-linecap="round" stroke-linejoin="round" stroke-miterlimit="10" d="
	M78.4,135.4c0-2.2,1.8-4.1,4.1-4.1c2.2,0,4.1,1.8,4.1,4.1c0,2.2-1.8,4.1-4.1,4.1C80.2,139.5,78.4,137.6,78.4,135.4"/>
<path fill="#EDF8FB" d="M108.9,135.4c0-0.6,0.5-1.1,1.1-1.1s1.1,0.5,1.1,1.1s-0.5,1.1-1.1,1.1S108.9,136,108.9,135.4"/>
<path fill="none" stroke="#EDF8FB" stroke-width="0.75" stroke-linecap="round" stroke-linejoin="round" stroke-miterlimit="10" d="
	M108.9,135.4c0-0.6,0.5-1.1,1.1-1.1s1.1,0.5,1.1,1.1s-0.5,1.1-1.1,1.1S108.9,136,108.9,135.4"/>
<path fill="#DA362A" d="M99.1,162.9c0-6,4.9-10.9,10.9-10.9s10.9,4.9,10.9,10.9s-4.9,10.9-10.9,10.9
	C104,173.8,99.1,168.9,99.1,162.9"/>
<path fill="none" stroke="#DA362A" stroke-width="0.75" stroke-linecap="round" stroke-linejoin="round" stroke-miterlimit="10" d="
	M99.1,162.9c0-6,4.9-10.9,10.9-10.9s10.9,4.9,10.9,10.9s-4.9,10.9-10.9,10.9C104,173.8,99.1,168.9,99.1,162.9"/>
<path fill="#DA362A" d="M127.1,135.4c0-5.7,4.7-10.4,10.4-10.4s10.4,4.7,10.4,10.4s-4.7,10.4-10.4,10.4
	C131.7,145.8,127.1,141.1,127.1,135.4"/>
<path fill="none" stroke="#DA362A" stroke-width="0.75" stroke-linecap="round" stroke-linejoin="round" stroke-miterlimit="10" d="
	M127.1,135.4c0-5.7,4.7-10.4,10.4-10.4s10.4,4.7,10.4,10.4s-4.7,10.4-10.4,10.4C131.7,145.8,127.1,141.1,127.1,135.4"/>
<path fill="#EDF8FB" d="M132.3,162.9c0-2.9,2.3-5.2,5.2-5.2c2.8,0,5.2,2.3,5.2,5.2c0,2.8-2.3,5.2-5.2,5.2
	C134.6,168.1,132.3,165.8,132.3,162.9"/>
<path fill="none" stroke="#EDF8FB" stroke-width="0.75" stroke-linecap="round" stroke-linejoin="round" stroke-miterlimit="10" d="
	M132.3,162.9c0-2.9,2.3-5.2,5.2-5.2c2.8,0,5.2,2.3,5.2,5.2c0,2.8-2.3,5.2-5.2,5.2C134.6,168.1,132.3,165.8,132.3,162.9"/>
<path fill="#EDF8FB" d="M132.1,190.5c0-3,2.4-5.4,5.4-5.4s5.4,2.4,5.4,5.4s-2.4,5.4-5.4,5.4C134.5,195.8,132.1,193.4,132.1,190.5"/>
<path fill="none" stroke="#EDF8FB" stroke-width="0.75" stroke-linecap="round" stroke-linejoin="round" stroke-miterlimit="10" d="
	M132.1,190.5c0-3,2.4-5.4,5.4-5.4s5.4,2.4,5.4,5.4s-2.4,5.4-5.4,5.4C134.5,195.8,132.1,193.4,132.1,190.5"/>
<path fill="#FDBE70" d="M157.2,135.4c0-4.3,3.5-7.8,7.8-7.8s7.8,3.5,7.8,7.8s-3.5,7.8-7.8,7.8S157.2,139.7,157.2,135.4"/>
<path fill="none" stroke="#FDBE70" stroke-width="0.75" stroke-linecap="round" stroke-linejoin="round" stroke-miterlimit="10" d="
	M157.2,135.4c0-4.3,3.5-7.8,7.8-7.8s7.8,3.5,7.8,7.8s-3.5,7.8-7.8,7.8S157.2,139.7,157.2,135.4"/>
<path fill="#FEEDC1" d="M162.8,162.9c0-1.2,1-2.2,2.2-2.2s2.2,1,2.2,2.2s-1,2.2-2.2,2.2C163.8,165.1,162.8,164.1,162.8,162.9"/>
<path fill="none" stroke="#FEEDC1" stroke-width="0.75" stroke-linecap="round" stroke-linejoin="round" stroke-miterlimit="10" d="
	M162.8,162.9c0-1.2,1-2.2,2.2-2.2s2.2,1,2.2,2.2s-1,2.2-2.2,2.2C163.8,165.1,162.8,164.1,162.8,162.9"/>
<path fill="#FEEDC1" d="M162.4,190.5c0-1.4,1.2-2.6,2.6-2.6c1.4,0,2.6,1.2,2.6,2.6c0,1.4-1.2,2.6-2.6,2.6
	C163.6,193.1,162.4,191.9,162.4,190.5"/>
<path fill="none" stroke="#FEEDC1" stroke-width="0.75" stroke-linecap="round" stroke-linejoin="round" stroke-miterlimit="10" d="
	M162.4,190.5c0-1.4,1.2-2.6,2.6-2.6c1.4,0,2.6,1.2,2.6,2.6c0,1.4-1.2,2.6-2.6,2.6C163.6,193.1,162.4,191.9,162.4,190.5"/>
<path fill="#DA362A" d="M154.3,218c0-5.9,4.8-10.7,10.7-10.7s10.7,4.8,10.7,10.7s-4.8,10.7-10.7,10.7S154.3,223.9,154.3,218"/>
<path fill="none" stroke="#DA362A" stroke-width="0.75" stroke-linecap="round" stroke-linejoin="round" stroke-miterlimit="10" d="
	M154.3,218c0-5.9,4.8-10.7,10.7-10.7s10.7,4.8,10.7,10.7s-4.8,10.7-10.7,10.7S154.3,223.9,154.3,218"/>
<path fill="#BCE1EE" d="M184.7,135.4c0-4.3,3.5-7.8,7.8-7.8s7.8,3.5,7.8,7.8s-3.5,7.8-7.8,7.8C188.3,143.2,184.7,139.7,184.7,135.4"
	/>
<path fill="none" stroke="#BCE1EE" stroke-width="0.75" stroke-linecap="round" stroke-linejoin="round" stroke-miterlimit="10" d="
	M184.7,135.4c0-4.3,3.5-7.8,7.8-7.8s7.8,3.5,7.8,7.8s-3.5,7.8-7.8,7.8C188.3,143.2,184.7,139.7,184.7,135.4"/>
<path fill="#FDBE70" d="M186.8,162.9c0-3.2,2.6-5.8,5.8-5.8s5.8,2.6,5.8,5.8s-2.6,5.8-5.8,5.8C189.4,168.7,186.8,166.1,186.8,162.9"
	/>
<path fill="none" stroke="#FDBE70" stroke-width="0.75" stroke-linecap="round" stroke-linejoin="round" stroke-miterlimit="10" d="
	M186.8,162.9c0-3.2,2.6-5.8,5.8-5.8s5.8,2.6,5.8,5.8s-2.6,5.8-5.8,5.8C189.4,168.7,186.8,166.1,186.8,162.9"/>
<path fill="#FEEDC1" d="M189,190.5c0-1.9,1.6-3.5,3.5-3.5s3.5,1.6,3.5,3.5s-1.6,3.5-3.5,3.5S189,192.4,189,190.5"/>
<path fill="none" stroke="#FEEDC1" stroke-width="0.75" stroke-linecap="round" stroke-linejoin="round" stroke-miterlimit="10" d="
	M189,190.5c0-1.9,1.6-3.5,3.5-3.5s3.5,1.6,3.5,3.5s-1.6,3.5-3.5,3.5S189,192.4,189,190.5"/>
<path fill="#80B6D6" d="M184,218c0-4.7,3.8-8.5,8.5-8.5s8.5,3.8,8.5,8.5s-3.8,8.5-8.5,8.5C187.9,226.5,184,222.7,184,218"/>
<path fill="none" stroke="#80B6D6" stroke-width="0.75" stroke-linecap="round" stroke-linejoin="round" stroke-miterlimit="10" d="
	M184,218c0-4.7,3.8-8.5,8.5-8.5s8.5,3.8,8.5,8.5s-3.8,8.5-8.5,8.5C187.9,226.5,184,222.7,184,218"/>
<path fill="#80B6D6" d="M184.3,245.5c0-4.5,3.7-8.2,8.3-8.2c4.5,0,8.2,3.7,8.2,8.2s-3.7,8.2-8.2,8.2
	C188,253.8,184.3,250.1,184.3,245.5"/>
<path fill="none" stroke="#80B6D6" stroke-width="0.75" stroke-linecap="round" stroke-linejoin="round" stroke-miterlimit="10" d="
	M184.3,245.5c0-4.5,3.7-8.2,8.3-8.2c4.5,0,8.2,3.7,8.2,8.2s-3.7,8.2-8.2,8.2C188,253.8,184.3,250.1,184.3,245.5"/>
<path fill="#F67B49" d="M212,135.4c0-4.5,3.6-8.1,8.1-8.1s8.1,3.6,8.1,8.1c0,4.4-3.6,8.1-8.1,8.1S212,139.9,212,135.4"/>
<path fill="none" stroke="#F67B49" stroke-width="0.75" stroke-linecap="round" stroke-linejoin="round" stroke-miterlimit="10" d="
	M212,135.4c0-4.5,3.6-8.1,8.1-8.1s8.1,3.6,8.1,8.1c0,4.4-3.6,8.1-8.1,8.1S212,139.9,212,135.4"/>
<path fill="#FEEDC1" d="M216.6,162.9c0-1.9,1.6-3.5,3.5-3.5s3.5,1.6,3.5,3.5s-1.6,3.5-3.5,3.5C218.1,166.5,216.6,164.9,216.6,162.9"
	/>
<path fill="none" stroke="#FEEDC1" stroke-width="0.75" stroke-linecap="round" stroke-linejoin="round" stroke-miterlimit="10" d="
	M216.6,162.9c0-1.9,1.6-3.5,3.5-3.5s3.5,1.6,3.5,3.5s-1.6,3.5-3.5,3.5C218.1,166.5,216.6,164.9,216.6,162.9"/>
<path fill="#FEEDC1" d="M217.3,190.5c0-1.5,1.3-2.8,2.8-2.8c1.6,0,2.8,1.3,2.8,2.8s-1.3,2.8-2.8,2.8
	C218.5,193.3,217.3,192,217.3,190.5"/>
<path fill="none" stroke="#FEEDC1" stroke-width="0.75" stroke-linecap="round" stroke-linejoin="round" stroke-miterlimit="10" d="
	M217.3,190.5c0-1.5,1.3-2.8,2.8-2.8c1.6,0,2.8,1.3,2.8,2.8s-1.3,2.8-2.8,2.8C218.5,193.3,217.3,192,217.3,190.5"/>
<path fill="#F67B49" d="M210.7,218c0-5.2,4.2-9.4,9.4-9.4s9.4,4.2,9.4,9.4s-4.2,9.4-9.4,9.4S210.7,223.2,210.7,218"/>
<path fill="none" stroke="#F67B49" stroke-width="0.75" stroke-linecap="round" stroke-linejoin="round" stroke-miterlimit="10" d="
	M210.7,218c0-5.2,4.2-9.4,9.4-9.4s9.4,4.2,9.4,9.4s-4.2,9.4-9.4,9.4S210.7,223.2,210.7,218"/>
<path fill="#F67B49" d="M212.1,245.5c0-4.4,3.6-8,8-8s8,3.6,8,8s-3.6,8-8,8C215.7,253.6,212.1,249.9,212.1,245.5"/>
<path fill="none" stroke="#F67B49" stroke-width="0.75" stroke-linecap="round" stroke-linejoin="round" stroke-miterlimit="10" d="
	M212.1,245.5c0-4.4,3.6-8,8-8s8,3.6,8,8s-3.6,8-8,8C215.7,253.6,212.1,249.9,212.1,245.5"/>
<path fill="#FDBE70" d="M212.9,273.1c0-3.9,3.2-7.2,7.2-7.2c3.9,0,7.2,3.2,7.2,7.2s-3.2,7.2-7.2,7.2
	C216.1,280.2,212.9,277,212.9,273.1"/>
<path fill="none" stroke="#FDBE70" stroke-width="0.75" stroke-linecap="round" stroke-linejoin="round" stroke-miterlimit="10" d="
	M212.9,273.1c0-3.9,3.2-7.2,7.2-7.2c3.9,0,7.2,3.2,7.2,7.2s-3.2,7.2-7.2,7.2C216.1,280.2,212.9,277,212.9,273.1"/>
<rect x="68.7" y="121.6" fill="none" stroke="#BEBEBE" stroke-width="0.75" stroke-linecap="round" stroke-linejoin="round" stroke-miterlimit="10" width="27.5" height="27.5"/>
<rect x="96.2" y="121.6" fill="none" stroke="#BEBEBE" stroke-width="0.75" stroke-linecap="round" stroke-linejoin="round" stroke-miterlimit="10" width="27.5" height="27.5"/>
<rect x="96.2" y="149.2" fill="none" stroke="#BEBEBE" stroke-width="0.75" stroke-linecap="round" stroke-linejoin="round" stroke-miterlimit="10" width="27.5" height="27.5"/>
<rect x="123.7" y="121.6" fill="none" stroke="#BEBEBE" stroke-width="0.75" stroke-linecap="round" stroke-linejoin="round" stroke-miterlimit="10" width="27.5" height="27.5"/>
<rect x="123.7" y="149.2" fill="none" stroke="#BEBEBE" stroke-width="0.75" stroke-linecap="round" stroke-linejoin="round" stroke-miterlimit="10" width="27.5" height="27.5"/>
<rect x="123.7" y="176.7" fill="none" stroke="#BEBEBE" stroke-width="0.75" stroke-linecap="round" stroke-linejoin="round" stroke-miterlimit="10" width="27.5" height="27.5"/>
<rect x="151.3" y="121.6" fill="none" stroke="#BEBEBE" stroke-width="0.75" stroke-linecap="round" stroke-linejoin="round" stroke-miterlimit="10" width="27.5" height="27.5"/>
<rect x="151.3" y="149.2" fill="none" stroke="#BEBEBE" stroke-width="0.75" stroke-linecap="round" stroke-linejoin="round" stroke-miterlimit="10" width="27.5" height="27.5"/>
<rect x="151.3" y="176.7" fill="none" stroke="#BEBEBE" stroke-width="0.75" stroke-linecap="round" stroke-linejoin="round" stroke-miterlimit="10" width="27.5" height="27.5"/>
<rect x="151.3" y="204.2" fill="none" stroke="#BEBEBE" stroke-width="0.75" stroke-linecap="round" stroke-linejoin="round" stroke-miterlimit="10" width="27.5" height="27.5"/>
<rect x="178.8" y="121.6" fill="none" stroke="#BEBEBE" stroke-width="0.75" stroke-linecap="round" stroke-linejoin="round" stroke-miterlimit="10" width="27.5" height="27.5"/>
<rect x="178.8" y="149.2" fill="none" stroke="#BEBEBE" stroke-width="0.75" stroke-linecap="round" stroke-linejoin="round" stroke-miterlimit="10" width="27.5" height="27.5"/>
<rect x="178.8" y="176.7" fill="none" stroke="#BEBEBE" stroke-width="0.75" stroke-linecap="round" stroke-linejoin="round" stroke-miterlimit="10" width="27.5" height="27.5"/>
<rect x="178.8" y="204.2" fill="none" stroke="#BEBEBE" stroke-width="0.75" stroke-linecap="round" stroke-linejoin="round" stroke-miterlimit="10" width="27.5" height="27.5"/>
<rect x="178.8" y="231.8" fill="none" stroke="#BEBEBE" stroke-width="0.75" stroke-linecap="round" stroke-linejoin="round" stroke-miterlimit="10" width="27.5" height="27.5"/>
<rect x="206.3" y="121.6" fill="none" stroke="#BEBEBE" stroke-width="0.75" stroke-linecap="round" stroke-linejoin="round" stroke-miterlimit="10" width="27.5" height="27.5"/>
<rect x="206.3" y="149.2" fill="none" stroke="#BEBEBE" stroke-width="0.75" stroke-linecap="round" stroke-linejoin="round" stroke-miterlimit="10" width="27.5" height="27.5"/>
<rect x="206.3" y="176.7" fill="none" stroke="#BEBEBE" stroke-width="0.75" stroke-linecap="round" stroke-linejoin="round" stroke-miterlimit="10" width="27.5" height="27.5"/>
<rect x="206.3" y="204.2" fill="none" stroke="#BEBEBE" stroke-width="0.75" stroke-linecap="round" stroke-linejoin="round" stroke-miterlimit="10" width="27.5" height="27.5"/>
<rect x="206.3" y="231.8" fill="none" stroke="#BEBEBE" stroke-width="0.75" stroke-linecap="round" stroke-linejoin="round" stroke-miterlimit="10" width="27.5" height="27.5"/>
<rect x="206.3" y="259.3" fill="none" stroke="#BEBEBE" stroke-width="0.75" stroke-linecap="round" stroke-linejoin="round" stroke-miterlimit="10" width="27.5" height="27.5"/>
<line fill="none" stroke="#000000" stroke-width="1.5" stroke-linecap="round" stroke-linejoin="round" stroke-miterlimit="10" x1="74.3" y1="143.5" x2="90.5" y2="127.3"/>
<line fill="none" stroke="#000000" stroke-width="1.5" stroke-linecap="round" stroke-linejoin="round" stroke-miterlimit="10" x1="74.3" y1="127.3" x2="90.5" y2="143.5"/>
<line fill="none" stroke="#000000" stroke-width="1.5" stroke-linecap="round" stroke-linejoin="round" stroke-miterlimit="10" x1="101.9" y1="143.5" x2="118.1" y2="127.3"/>
<line fill="none" stroke="#000000" stroke-width="1.5" stroke-linecap="round" stroke-linejoin="round" stroke-miterlimit="10" x1="101.9" y1="127.3" x2="118.1" y2="143.5"/>
<line fill="none" stroke="#000000" stroke-width="1.5" stroke-linecap="round" stroke-linejoin="round" stroke-miterlimit="10" x1="129.4" y1="171" x2="145.6" y2="154.8"/>
<line fill="none" stroke="#000000" stroke-width="1.5" stroke-linecap="round" stroke-linejoin="round" stroke-miterlimit="10" x1="129.4" y1="154.8" x2="145.6" y2="171"/>
<line fill="none" stroke="#000000" stroke-width="1.5" stroke-linecap="round" stroke-linejoin="round" stroke-miterlimit="10" x1="129.4" y1="198.6" x2="145.6" y2="182.4"/>
<line fill="none" stroke="#000000" stroke-width="1.5" stroke-linecap="round" stroke-linejoin="round" stroke-miterlimit="10" x1="129.4" y1="182.4" x2="145.6" y2="198.6"/>
<line fill="none" stroke="#000000" stroke-width="1.5" stroke-linecap="round" stroke-linejoin="round" stroke-miterlimit="10" x1="156.9" y1="143.5" x2="173.1" y2="127.3"/>
<line fill="none" stroke="#000000" stroke-width="1.5" stroke-linecap="round" stroke-linejoin="round" stroke-miterlimit="10" x1="156.9" y1="127.3" x2="173.1" y2="143.5"/>
<line fill="none" stroke="#000000" stroke-width="1.5" stroke-linecap="round" stroke-linejoin="round" stroke-miterlimit="10" x1="156.9" y1="171" x2="173.1" y2="154.8"/>
<line fill="none" stroke="#000000" stroke-width="1.5" stroke-linecap="round" stroke-linejoin="round" stroke-miterlimit="10" x1="156.9" y1="154.8" x2="173.1" y2="171"/>
<line fill="none" stroke="#000000" stroke-width="1.5" stroke-linecap="round" stroke-linejoin="round" stroke-miterlimit="10" x1="156.9" y1="198.6" x2="173.1" y2="182.4"/>
<line fill="none" stroke="#000000" stroke-width="1.5" stroke-linecap="round" stroke-linejoin="round" stroke-miterlimit="10" x1="156.9" y1="182.4" x2="173.1" y2="198.6"/>
<line fill="none" stroke="#000000" stroke-width="1.5" stroke-linecap="round" stroke-linejoin="round" stroke-miterlimit="10" x1="184.5" y1="143.5" x2="200.7" y2="127.3"/>
<line fill="none" stroke="#000000" stroke-width="1.5" stroke-linecap="round" stroke-linejoin="round" stroke-miterlimit="10" x1="184.5" y1="127.3" x2="200.7" y2="143.5"/>
<line fill="none" stroke="#000000" stroke-width="1.5" stroke-linecap="round" stroke-linejoin="round" stroke-miterlimit="10" x1="184.5" y1="171" x2="200.7" y2="154.8"/>
<line fill="none" stroke="#000000" stroke-width="1.5" stroke-linecap="round" stroke-linejoin="round" stroke-miterlimit="10" x1="184.5" y1="154.8" x2="200.7" y2="171"/>
<line fill="none" stroke="#000000" stroke-width="1.5" stroke-linecap="round" stroke-linejoin="round" stroke-miterlimit="10" x1="184.5" y1="198.6" x2="200.7" y2="182.4"/>
<line fill="none" stroke="#000000" stroke-width="1.5" stroke-linecap="round" stroke-linejoin="round" stroke-miterlimit="10" x1="184.5" y1="182.4" x2="200.7" y2="198.6"/>
<line fill="none" stroke="#000000" stroke-width="1.5" stroke-linecap="round" stroke-linejoin="round" stroke-miterlimit="10" x1="184.5" y1="226.1" x2="200.7" y2="209.9"/>
<line fill="none" stroke="#000000" stroke-width="1.5" stroke-linecap="round" stroke-linejoin="round" stroke-miterlimit="10" x1="184.5" y1="209.9" x2="200.7" y2="226.1"/>
<line fill="none" stroke="#000000" stroke-width="1.5" stroke-linecap="round" stroke-linejoin="round" stroke-miterlimit="10" x1="184.5" y1="253.6" x2="200.7" y2="237.4"/>
<line fill="none" stroke="#000000" stroke-width="1.5" stroke-linecap="round" stroke-linejoin="round" stroke-miterlimit="10" x1="184.5" y1="237.4" x2="200.7" y2="253.6"/>
<line fill="none" stroke="#000000" stroke-width="1.5" stroke-linecap="round" stroke-linejoin="round" stroke-miterlimit="10" x1="212" y1="143.5" x2="228.2" y2="127.3"/>
<line fill="none" stroke="#000000" stroke-width="1.5" stroke-linecap="round" stroke-linejoin="round" stroke-miterlimit="10" x1="212" y1="127.3" x2="228.2" y2="143.5"/>
<line fill="none" stroke="#000000" stroke-width="1.5" stroke-linecap="round" stroke-linejoin="round" stroke-miterlimit="10" x1="212" y1="171" x2="228.2" y2="154.8"/>
<line fill="none" stroke="#000000" stroke-width="1.5" stroke-linecap="round" stroke-linejoin="round" stroke-miterlimit="10" x1="212" y1="154.8" x2="228.2" y2="171"/>
<line fill="none" stroke="#000000" stroke-width="1.5" stroke-linecap="round" stroke-linejoin="round" stroke-miterlimit="10" x1="212" y1="198.6" x2="228.2" y2="182.4"/>
<line fill="none" stroke="#000000" stroke-width="1.5" stroke-linecap="round" stroke-linejoin="round" stroke-miterlimit="10" x1="212" y1="182.4" x2="228.2" y2="198.6"/>
<line fill="none" stroke="#000000" stroke-width="1.5" stroke-linecap="round" stroke-linejoin="round" stroke-miterlimit="10" x1="212" y1="253.6" x2="228.2" y2="237.4"/>
<line fill="none" stroke="#000000" stroke-width="1.5" stroke-linecap="round" stroke-linejoin="round" stroke-miterlimit="10" x1="212" y1="237.4" x2="228.2" y2="253.6"/>
<line fill="none" stroke="#000000" stroke-width="1.5" stroke-linecap="round" stroke-linejoin="round" stroke-miterlimit="10" x1="212" y1="281.2" x2="228.2" y2="265"/>
<line fill="none" stroke="#000000" stroke-width="1.5" stroke-linecap="round" stroke-linejoin="round" stroke-miterlimit="10" x1="212" y1="265" x2="228.2" y2="281.2"/>
<rect x="236.6" y="270.3" fill="#313695" width="5.4" height="16.5"/>
<rect x="236.6" y="270.3" fill="none" stroke="#313695" stroke-width="0.75" stroke-linecap="round" stroke-linejoin="round" stroke-miterlimit="10" width="5.4" height="16.5"/>
<rect x="236.6" y="253.8" fill="#4A7BB7" width="5.4" height="16.5"/>
<rect x="236.6" y="253.8" fill="none" stroke="#4A7BB7" stroke-width="0.75" stroke-linecap="round" stroke-linejoin="round" stroke-miterlimit="10" width="5.4" height="16.5"/>
<rect x="236.6" y="237.3" fill="#80B6D6" width="5.4" height="16.5"/>
<rect x="236.6" y="237.3" fill="none" stroke="#80B6D6" stroke-width="0.75" stroke-linecap="round" stroke-linejoin="round" stroke-miterlimit="10" width="5.4" height="16.5"/>
<rect x="236.6" y="220.8" fill="#BCE1EE" width="5.4" height="16.5"/>
<rect x="236.6" y="220.8" fill="none" stroke="#BCE1EE" stroke-width="0.75" stroke-linecap="round" stroke-linejoin="round" stroke-miterlimit="10" width="5.4" height="16.5"/>
<rect x="236.6" y="204.2" fill="#EDF8FB" width="5.4" height="16.5"/>
<rect x="236.6" y="204.2" fill="none" stroke="#EDF8FB" stroke-width="0.75" stroke-linecap="round" stroke-linejoin="round" stroke-miterlimit="10" width="5.4" height="16.5"/>
<rect x="236.6" y="187.7" fill="#FEEDC1" width="5.4" height="16.5"/>
<rect x="236.6" y="187.7" fill="none" stroke="#FEEDC1" stroke-width="0.75" stroke-linecap="round" stroke-linejoin="round" stroke-miterlimit="10" width="5.4" height="16.5"/>
<rect x="236.6" y="171.2" fill="#FDBE70" width="5.4" height="16.5"/>
<rect x="236.6" y="171.2" fill="none" stroke="#FDBE70" stroke-width="0.75" stroke-linecap="round" stroke-linejoin="round" stroke-miterlimit="10" width="5.4" height="16.5"/>
<rect x="236.6" y="154.7" fill="#F67B49" width="5.4" height="16.5"/>
<rect x="236.6" y="154.7" fill="none" stroke="#F67B49" stroke-width="0.75" stroke-linecap="round" stroke-linejoin="round" stroke-miterlimit="10" width="5.4" height="16.5"/>
<rect x="236.6" y="138.2" fill="#DA362A" width="5.4" height="16.5"/>
<rect x="236.6" y="138.2" fill="none" stroke="#DA362A" stroke-width="0.75" stroke-linecap="round" stroke-linejoin="round" stroke-miterlimit="10" width="5.4" height="16.5"/>
<rect x="236.6" y="121.6" fill="#A50026" width="5.4" height="16.5"/>
<rect x="236.6" y="121.6" fill="none" stroke="#A50026" stroke-width="0.75" stroke-linecap="round" stroke-linejoin="round" stroke-miterlimit="10" width="5.4" height="16.5"/>
<rect x="236.6" y="121.6" fill="none" stroke="#000000" stroke-width="0.75" stroke-linecap="round" stroke-linejoin="round" stroke-miterlimit="10" width="5.4" height="165.2"/>
<line fill="none" stroke="#000000" stroke-width="0.75" stroke-linecap="round" stroke-linejoin="round" stroke-miterlimit="10" x1="242" y1="286.8" x2="243" y2="286.8"/>
<line fill="none" stroke="#000000" stroke-width="0.75" stroke-linecap="round" stroke-linejoin="round" stroke-miterlimit="10" x1="242" y1="270.3" x2="243" y2="270.3"/>
<line fill="none" stroke="#000000" stroke-width="0.75" stroke-linecap="round" stroke-linejoin="round" stroke-miterlimit="10" x1="242" y1="253.8" x2="243" y2="253.8"/>
<line fill="none" stroke="#000000" stroke-width="0.75" stroke-linecap="round" stroke-linejoin="round" stroke-miterlimit="10" x1="242" y1="237.3" x2="243" y2="237.3"/>
<line fill="none" stroke="#000000" stroke-width="0.75" stroke-linecap="round" stroke-linejoin="round" stroke-miterlimit="10" x1="242" y1="220.8" x2="243" y2="220.8"/>
<line fill="none" stroke="#000000" stroke-width="0.75" stroke-linecap="round" stroke-linejoin="round" stroke-miterlimit="10" x1="242" y1="204.2" x2="243" y2="204.2"/>
<line fill="none" stroke="#000000" stroke-width="0.75" stroke-linecap="round" stroke-linejoin="round" stroke-miterlimit="10" x1="242" y1="187.7" x2="243" y2="187.7"/>
<line fill="none" stroke="#000000" stroke-width="0.75" stroke-linecap="round" stroke-linejoin="round" stroke-miterlimit="10" x1="242" y1="171.2" x2="243" y2="171.2"/>
<line fill="none" stroke="#000000" stroke-width="0.75" stroke-linecap="round" stroke-linejoin="round" stroke-miterlimit="10" x1="242" y1="154.7" x2="243" y2="154.7"/>
<line fill="none" stroke="#000000" stroke-width="0.75" stroke-linecap="round" stroke-linejoin="round" stroke-miterlimit="10" x1="242" y1="138.2" x2="243" y2="138.2"/>
<line fill="none" stroke="#000000" stroke-width="0.75" stroke-linecap="round" stroke-linejoin="round" stroke-miterlimit="10" x1="242" y1="121.6" x2="243" y2="121.6"/>
<g>
	<path d="M254.6,287.2h-4.7v-0.8h4.7V287.2z"/>
	<path d="M258.9,290.4H258v-5.6c-0.2,0.2-0.5,0.4-0.8,0.6s-0.7,0.4-0.9,0.5V285c0.5-0.2,0.9-0.5,1.3-0.8s0.6-0.6,0.8-1h0.6v7.2
		H258.9z"/>
</g>
<g>
	<path d="M250.5,270.6h-4.7v-0.8h4.7V270.6z"/>
	<path d="M251.4,270.2c0-0.8,0.1-1.5,0.3-2s0.4-0.9,0.8-1.2c0.3-0.3,0.8-0.4,1.3-0.4c0.4,0,0.7,0.1,1,0.2c0.3,0.2,0.5,0.4,0.7,0.7
		c0.2,0.3,0.3,0.6,0.4,1.1c0.1,0.4,0.2,1,0.2,1.7c0,0.8-0.1,1.5-0.3,2s-0.4,0.9-0.8,1.2c-0.3,0.3-0.8,0.4-1.3,0.4
		c-0.7,0-1.2-0.2-1.6-0.7C251.7,272.5,251.4,271.6,251.4,270.2z M252.3,270.2c0,1.2,0.1,2,0.4,2.3c0.3,0.4,0.6,0.6,1,0.6
		s0.7-0.2,1-0.6s0.4-1.2,0.4-2.3c0-1.2-0.1-2-0.4-2.3c-0.3-0.4-0.6-0.6-1-0.6s-0.7,0.2-1,0.5C252.5,268.2,252.3,269,252.3,270.2z"/>
	<path d="M257.5,273.7v-1h1v1H257.5z"/>
	<path d="M261.1,269.9c-0.4-0.1-0.6-0.3-0.8-0.6s-0.3-0.5-0.3-0.9c0-0.5,0.2-1,0.6-1.3s0.9-0.5,1.5-0.5s1.1,0.2,1.5,0.5
		c0.4,0.4,0.6,0.8,0.6,1.3c0,0.3-0.1,0.6-0.3,0.9c-0.2,0.2-0.4,0.4-0.8,0.6c0.4,0.1,0.8,0.4,1,0.7c0.2,0.3,0.3,0.7,0.3,1.1
		c0,0.6-0.2,1.1-0.6,1.5s-1,0.6-1.7,0.6s-1.3-0.2-1.7-0.6c-0.4-0.4-0.6-0.9-0.6-1.6c0-0.5,0.1-0.9,0.4-1.2
		C260.3,270.2,260.7,270,261.1,269.9z M260.7,271.7c0,0.3,0.1,0.5,0.2,0.7s0.3,0.4,0.5,0.5s0.5,0.2,0.8,0.2c0.4,0,0.8-0.1,1-0.4
		s0.4-0.6,0.4-1s-0.1-0.8-0.4-1c-0.3-0.3-0.6-0.4-1.1-0.4c-0.4,0-0.8,0.1-1,0.4C260.8,270.9,260.7,271.3,260.7,271.7z M260.9,268.4
		c0,0.3,0.1,0.6,0.3,0.8s0.5,0.3,0.8,0.3s0.6-0.1,0.8-0.3c0.2-0.2,0.3-0.5,0.3-0.8s-0.1-0.6-0.3-0.8c-0.2-0.2-0.5-0.3-0.8-0.3
		s-0.6,0.1-0.8,0.3S260.9,268.1,260.9,268.4z"/>
</g>
<g>
	<path d="M250.5,254.1h-4.7v-0.8h4.7V254.1z"/>
	<path d="M251.4,253.7c0-0.8,0.1-1.5,0.3-2s0.4-0.9,0.8-1.2c0.3-0.3,0.8-0.4,1.3-0.4c0.4,0,0.7,0.1,1,0.2c0.3,0.2,0.5,0.4,0.7,0.7
		s0.3,0.6,0.4,1.1c0.1,0.4,0.2,1,0.2,1.7c0,0.8-0.1,1.5-0.3,2c-0.2,0.5-0.4,0.9-0.8,1.2c-0.3,0.3-0.8,0.4-1.3,0.4
		c-0.7,0-1.2-0.2-1.6-0.7C251.7,256,251.4,255,251.4,253.7z M252.3,253.7c0,1.2,0.1,2,0.4,2.3c0.3,0.4,0.6,0.6,1,0.6s0.7-0.2,1-0.6
		s0.4-1.2,0.4-2.3c0-1.2-0.1-2-0.4-2.3c-0.3-0.4-0.6-0.6-1-0.6s-0.7,0.2-1,0.5C252.5,251.7,252.3,252.5,252.3,253.7z"/>
	<path d="M257.5,257.2v-1h1v1H257.5z"/>
	<path d="M264.3,251.8l-0.9,0.1c-0.1-0.3-0.2-0.6-0.3-0.8c-0.2-0.3-0.5-0.4-0.9-0.4c-0.3,0-0.5,0.1-0.7,0.2
		c-0.3,0.2-0.5,0.5-0.7,0.9s-0.2,0.9-0.2,1.7c0.2-0.3,0.5-0.6,0.8-0.7s0.6-0.2,1-0.2c0.6,0,1.1,0.2,1.5,0.6c0.4,0.4,0.6,1,0.6,1.7
		c0,0.4-0.1,0.9-0.3,1.3c-0.2,0.4-0.5,0.7-0.8,0.9s-0.7,0.3-1.2,0.3c-0.7,0-1.3-0.3-1.8-0.8s-0.7-1.4-0.7-2.7c0-1.4,0.3-2.4,0.8-3
		c0.4-0.5,1-0.8,1.8-0.8c0.6,0,1,0.2,1.4,0.5C264,250.8,264.3,251.3,264.3,251.8z M260.7,254.9c0,0.3,0.1,0.6,0.2,0.9
		s0.3,0.5,0.5,0.6s0.5,0.2,0.7,0.2c0.4,0,0.7-0.1,1-0.4s0.4-0.7,0.4-1.2s-0.1-0.9-0.4-1.2s-0.6-0.4-1-0.4s-0.7,0.1-1,0.4
		C260.9,254.1,260.7,254.4,260.7,254.9z"/>
</g>
<g>
	<path d="M250.5,237.6h-4.7v-0.8h4.7V237.6z"/>
	<path d="M251.4,237.2c0-0.8,0.1-1.5,0.3-2s0.4-0.9,0.8-1.2c0.3-0.3,0.8-0.4,1.3-0.4c0.4,0,0.7,0.1,1,0.2c0.3,0.2,0.5,0.4,0.7,0.7
		s0.3,0.6,0.4,1.1c0.1,0.4,0.2,1,0.2,1.7c0,0.8-0.1,1.5-0.3,2s-0.4,0.9-0.8,1.2c-0.3,0.3-0.8,0.4-1.3,0.4c-0.7,0-1.2-0.2-1.6-0.7
		C251.7,239.5,251.4,238.5,251.4,237.2z M252.3,237.2c0,1.2,0.1,2,0.4,2.3c0.3,0.4,0.6,0.6,1,0.6s0.7-0.2,1-0.6
		c0.3-0.4,0.4-1.2,0.4-2.3c0-1.2-0.1-2-0.4-2.3c-0.3-0.4-0.6-0.6-1-0.6s-0.7,0.2-1,0.5C252.5,235.2,252.3,236,252.3,237.2z"/>
	<path d="M257.5,240.7v-1h1v1H257.5z"/>
	<path d="M262.6,240.7V239h-3.1v-0.8l3.3-4.6h0.7v4.6h1v0.8h-1v1.7H262.6z M262.6,238.2V235l-2.2,3.2H262.6z"/>
</g>
<g>
	<path d="M250.5,221.1h-4.7v-0.8h4.7V221.1z"/>
	<path d="M251.4,220.6c0-0.8,0.1-1.5,0.3-2s0.4-0.9,0.8-1.2c0.3-0.3,0.8-0.4,1.3-0.4c0.4,0,0.7,0.1,1,0.2c0.3,0.2,0.5,0.4,0.7,0.7
		s0.3,0.6,0.4,1.1c0.1,0.4,0.2,1,0.2,1.7c0,0.8-0.1,1.5-0.3,2s-0.4,0.9-0.8,1.2c-0.3,0.3-0.8,0.4-1.3,0.4c-0.7,0-1.2-0.2-1.6-0.7
		C251.7,223,251.4,222,251.4,220.6z M252.3,220.6c0,1.2,0.1,2,0.4,2.3c0.3,0.4,0.6,0.6,1,0.6s0.7-0.2,1-0.6c0.3-0.4,0.4-1.2,0.4-2.3
		c0-1.2-0.1-2-0.4-2.3c-0.3-0.4-0.6-0.6-1-0.6s-0.7,0.2-1,0.5C252.5,218.7,252.3,219.5,252.3,220.6z"/>
	<path d="M257.5,224.2v-1h1v1H257.5z"/>
	<path d="M264.4,223.3v0.8h-4.7c0-0.2,0-0.4,0.1-0.6c0.1-0.3,0.3-0.6,0.6-1c0.3-0.3,0.6-0.7,1.1-1.1c0.8-0.6,1.3-1.1,1.6-1.5
		c0.3-0.4,0.4-0.7,0.4-1.1c0-0.3-0.1-0.6-0.4-0.9c-0.2-0.2-0.6-0.4-1-0.4s-0.8,0.1-1,0.4s-0.4,0.6-0.4,1.1l-0.9-0.1
		c0.1-0.7,0.3-1.2,0.7-1.5c0.4-0.4,0.9-0.5,1.6-0.5s1.2,0.2,1.6,0.6s0.6,0.9,0.6,1.4c0,0.3-0.1,0.6-0.2,0.8s-0.3,0.6-0.6,0.9
		c-0.3,0.3-0.7,0.7-1.4,1.3c-0.5,0.4-0.9,0.7-1,0.9s-0.3,0.3-0.4,0.5L264.4,223.3L264.4,223.3z"/>
</g>
<g>
	<path d="M252.7,204.1c0-0.8,0.1-1.5,0.3-2s0.4-0.9,0.8-1.2c0.3-0.3,0.8-0.4,1.3-0.4c0.4,0,0.7,0.1,1,0.2c0.3,0.2,0.5,0.4,0.7,0.7
		s0.3,0.6,0.4,1.1c0.1,0.4,0.2,1,0.2,1.7c0,0.8-0.1,1.5-0.3,2c-0.2,0.5-0.4,0.9-0.8,1.2c-0.3,0.3-0.8,0.4-1.3,0.4
		c-0.7,0-1.2-0.2-1.6-0.7C252.9,206.4,252.7,205.5,252.7,204.1z M253.6,204.1c0,1.2,0.1,2,0.4,2.3c0.3,0.4,0.6,0.6,1,0.6
		s0.7-0.2,1-0.6c0.3-0.4,0.4-1.2,0.4-2.3c0-1.2-0.1-2-0.4-2.3c-0.3-0.4-0.6-0.6-1-0.6s-0.7,0.2-1,0.5
		C253.7,202.1,253.6,203,253.6,204.1z"/>
</g>
<g>
	<path d="M248.5,187.6c0-0.8,0.1-1.5,0.3-2s0.4-0.9,0.8-1.2c0.3-0.3,0.8-0.4,1.3-0.4c0.4,0,0.7,0.1,1,0.2c0.3,0.2,0.5,0.4,0.7,0.7
		s0.3,0.6,0.4,1.1c0.1,0.4,0.2,1,0.2,1.7c0,0.8-0.1,1.5-0.3,2s-0.4,0.9-0.8,1.2c-0.3,0.3-0.8,0.4-1.3,0.4c-0.7,0-1.2-0.2-1.6-0.7
		C248.7,189.9,248.5,189,248.5,187.6z M249.4,187.6c0,1.2,0.1,2,0.4,2.3c0.3,0.4,0.6,0.6,1,0.6s0.7-0.2,1-0.6
		c0.3-0.4,0.4-1.2,0.4-2.3c0-1.2-0.1-2-0.4-2.3c-0.3-0.4-0.6-0.6-1-0.6s-0.7,0.2-1,0.5C249.6,185.6,249.4,186.4,249.4,187.6z"/>
	<path d="M254.6,191.1v-1h1v1H254.6z"/>
	<path d="M261.5,190.3v0.8h-4.7c0-0.2,0-0.4,0.1-0.6c0.1-0.3,0.3-0.6,0.6-1c0.3-0.3,0.6-0.7,1.1-1.1c0.8-0.6,1.3-1.1,1.6-1.5
		c0.3-0.4,0.4-0.7,0.4-1.1c0-0.3-0.1-0.6-0.4-0.9c-0.2-0.2-0.6-0.4-1-0.4s-0.8,0.1-1,0.4s-0.4,0.6-0.4,1.1l-0.9-0.1
		c0.1-0.7,0.3-1.2,0.7-1.5c0.4-0.4,0.9-0.5,1.6-0.5s1.2,0.2,1.6,0.6s0.6,0.9,0.6,1.4c0,0.3-0.1,0.6-0.2,0.8s-0.3,0.6-0.6,0.9
		c-0.3,0.3-0.7,0.7-1.4,1.3c-0.5,0.4-0.9,0.7-1,0.9s-0.3,0.3-0.4,0.5L261.5,190.3L261.5,190.3z"/>
</g>
<g>
	<path d="M248.5,171.1c0-0.8,0.1-1.5,0.3-2s0.4-0.9,0.8-1.2c0.3-0.3,0.8-0.4,1.3-0.4c0.4,0,0.7,0.1,1,0.2c0.3,0.2,0.5,0.4,0.7,0.7
		s0.3,0.6,0.4,1.1c0.1,0.4,0.2,1,0.2,1.7c0,0.8-0.1,1.5-0.3,2s-0.4,0.9-0.8,1.2c-0.3,0.3-0.8,0.4-1.3,0.4c-0.7,0-1.2-0.2-1.6-0.7
		C248.7,173.4,248.5,172.4,248.5,171.1z M249.4,171.1c0,1.2,0.1,2,0.4,2.3c0.3,0.4,0.6,0.6,1,0.6s0.7-0.2,1-0.6
		c0.3-0.4,0.4-1.2,0.4-2.3c0-1.2-0.1-2-0.4-2.3c-0.3-0.4-0.6-0.6-1-0.6s-0.7,0.2-1,0.5C249.6,169.1,249.4,169.9,249.4,171.1z"/>
	<path d="M254.6,174.6v-1h1v1H254.6z"/>
	<path d="M259.7,174.6v-1.7h-3.1v-0.8l3.3-4.6h0.7v4.6h1v0.8h-1v1.7H259.7z M259.7,172.1v-3.2l-2.2,3.2H259.7z"/>
</g>
<g>
	<path d="M248.5,154.6c0-0.8,0.1-1.5,0.3-2s0.4-0.9,0.8-1.2c0.3-0.3,0.8-0.4,1.3-0.4c0.4,0,0.7,0.1,1,0.2s0.5,0.4,0.7,0.7
		s0.3,0.6,0.4,1.1s0.2,1,0.2,1.7c0,0.8-0.1,1.5-0.3,2s-0.4,0.9-0.8,1.2c-0.3,0.3-0.8,0.4-1.3,0.4c-0.7,0-1.2-0.2-1.6-0.7
		C248.7,156.9,248.5,155.9,248.5,154.6z M249.4,154.6c0,1.2,0.1,2,0.4,2.3c0.3,0.4,0.6,0.6,1,0.6s0.7-0.2,1-0.6
		c0.3-0.4,0.4-1.2,0.4-2.3c0-1.2-0.1-2-0.4-2.3c-0.3-0.4-0.6-0.6-1-0.6s-0.7,0.2-1,0.5C249.6,152.6,249.4,153.4,249.4,154.6z"/>
	<path d="M254.6,158.1v-1h1v1H254.6z"/>
	<path d="M261.4,152.7l-0.9,0.1c-0.1-0.3-0.2-0.6-0.3-0.8c-0.2-0.3-0.5-0.4-0.9-0.4c-0.3,0-0.5,0.1-0.7,0.2
		c-0.3,0.2-0.5,0.5-0.7,0.9s-0.2,0.9-0.2,1.7c0.2-0.3,0.5-0.6,0.8-0.7s0.6-0.2,1-0.2c0.6,0,1.1,0.2,1.5,0.6c0.4,0.4,0.6,1,0.6,1.7
		c0,0.4-0.1,0.9-0.3,1.3c-0.2,0.4-0.5,0.7-0.8,0.9s-0.7,0.3-1.2,0.3c-0.7,0-1.3-0.3-1.8-0.8s-0.7-1.4-0.7-2.7c0-1.4,0.3-2.4,0.8-3
		c0.4-0.5,1-0.8,1.8-0.8c0.6,0,1,0.2,1.4,0.5C261.1,151.7,261.3,152.1,261.4,152.7z M257.8,155.8c0,0.3,0.1,0.6,0.2,0.9
		c0.1,0.3,0.3,0.5,0.5,0.6s0.5,0.2,0.7,0.2c0.4,0,0.7-0.1,1-0.4s0.4-0.7,0.4-1.2s-0.1-0.9-0.4-1.2s-0.6-0.4-1-0.4s-0.7,0.1-1,0.4
		S257.8,155.3,257.8,155.8z"/>
</g>
<g>
	<path d="M248.5,138c0-0.8,0.1-1.5,0.3-2s0.4-0.9,0.8-1.2c0.3-0.3,0.8-0.4,1.3-0.4c0.4,0,0.7,0.1,1,0.2s0.5,0.4,0.7,0.7
		s0.3,0.6,0.4,1.1s0.2,1,0.2,1.7c0,0.8-0.1,1.5-0.3,2s-0.4,0.9-0.8,1.2c-0.3,0.3-0.8,0.4-1.3,0.4c-0.7,0-1.2-0.2-1.6-0.7
		C248.7,140.4,248.5,139.4,248.5,138z M249.4,138c0,1.2,0.1,2,0.4,2.3c0.3,0.4,0.6,0.6,1,0.6s0.7-0.2,1-0.6c0.3-0.4,0.4-1.2,0.4-2.3
		c0-1.2-0.1-2-0.4-2.3c-0.3-0.4-0.6-0.6-1-0.6s-0.7,0.2-1,0.5C249.6,136.1,249.4,136.9,249.4,138z"/>
	<path d="M254.6,141.6v-1h1v1H254.6z"/>
	<path d="M258.2,137.7c-0.4-0.1-0.6-0.3-0.8-0.6s-0.3-0.5-0.3-0.9c0-0.5,0.2-1,0.6-1.3s0.9-0.5,1.5-0.5s1.1,0.2,1.5,0.5
		s0.6,0.8,0.6,1.3c0,0.3-0.1,0.6-0.3,0.9c-0.2,0.2-0.4,0.4-0.8,0.6c0.4,0.1,0.8,0.4,1,0.7s0.3,0.7,0.3,1.1c0,0.6-0.2,1.1-0.6,1.5
		s-1,0.6-1.7,0.6s-1.3-0.2-1.7-0.6s-0.6-0.9-0.6-1.6c0-0.5,0.1-0.9,0.4-1.2C257.4,138,257.8,137.8,258.2,137.7z M257.7,139.5
		c0,0.3,0.1,0.5,0.2,0.7s0.3,0.4,0.5,0.5s0.5,0.2,0.8,0.2c0.4,0,0.8-0.1,1-0.4s0.4-0.6,0.4-1s-0.1-0.8-0.4-1
		c-0.3-0.3-0.6-0.4-1.1-0.4c-0.4,0-0.8,0.1-1,0.4C257.9,138.8,257.7,139.1,257.7,139.5z M258,136.2c0,0.3,0.1,0.6,0.3,0.8
		s0.5,0.3,0.8,0.3s0.6-0.1,0.8-0.3c0.2-0.2,0.3-0.5,0.3-0.8s-0.1-0.6-0.3-0.8c-0.2-0.2-0.5-0.3-0.8-0.3s-0.6,0.1-0.8,0.3
		S258,135.9,258,136.2z"/>
</g>
<g>
	<path d="M256,125.2h-0.9v-5.6c-0.2,0.2-0.5,0.4-0.8,0.6s-0.7,0.4-0.9,0.5v-0.8c0.5-0.2,0.9-0.5,1.3-0.8s0.6-0.6,0.8-1h0.6v7.1H256z
		"/>
</g>
<g>
	<path fill="#FF0000" d="M86,115.2l-6.2,1.9V116l3.6-1l1.3-0.4c-0.1,0-0.5-0.1-1.3-0.3l-3.6-1v-1.1l3.6-0.9l1.2-0.3l-1.2-0.4
		l-3.6-1.1v-1l6.2,1.9v1.1l-3.7,1l-1.1,0.2L86,114C86,114,86,115.2,86,115.2z"/>
	<path fill="#FF0000" d="M78.6,107.6h-1.2v-1.1h1.2V107.6z M86,107.6h-6.2v-1.1H86V107.6z"/>
	<path fill="#FF0000" d="M86,105h-6.2v-1h0.9c-0.7-0.5-1-1.1-1-2c0-0.4,0.1-0.7,0.2-1s0.3-0.5,0.5-0.7s0.5-0.3,0.8-0.3
		c0.2,0,0.5-0.1,1-0.1H86v1.1h-3.8c-0.4,0-0.8,0-1,0.1s-0.4,0.2-0.5,0.4s-0.2,0.5-0.2,0.7c0,0.4,0.1,0.8,0.4,1.2s0.8,0.5,1.6,0.5H86
		V105z"/>
	<path fill="#FF0000" d="M86,94.3h-0.8c0.6,0.4,0.9,1,0.9,1.7c0,0.5-0.1,1-0.4,1.4s-0.7,0.7-1.1,1s-1.1,0.3-1.7,0.3
		s-1.2-0.1-1.7-0.3s-0.9-0.5-1.2-0.9s-0.4-0.9-0.4-1.4c0-0.4,0.1-0.7,0.2-1s0.4-0.5,0.6-0.7h-3.1v-1H86V94.3z M82.9,97.6
		c0.8,0,1.4-0.2,1.8-0.5s0.6-0.7,0.6-1.2s-0.2-0.9-0.6-1.2s-1-0.5-1.7-0.5c-0.9,0-1.5,0.2-1.9,0.5s-0.6,0.7-0.6,1.2s0.2,0.9,0.6,1.2
		S82,97.6,82.9,97.6z"/>
	<path fill="#FF0000" d="M85,83.1h1v5.7c-0.3,0-0.5,0-0.7-0.1c-0.4-0.1-0.8-0.4-1.1-0.7s-0.8-0.8-1.3-1.4c-0.9-1-1.5-1.6-1.9-2
		s-0.9-0.5-1.3-0.5s-0.8,0.1-1.1,0.4s-0.4,0.7-0.4,1.2s0.2,0.9,0.5,1.2s0.7,0.5,1.3,0.5l-0.1,1.1c-0.8-0.1-1.4-0.4-1.8-0.8
		s-0.6-1.1-0.6-2c0-0.8,0.2-1.5,0.7-2s1-0.7,1.7-0.7c0.3,0,0.7,0.1,1,0.2s0.7,0.4,1,0.7s0.9,0.9,1.5,1.6c0.5,0.6,0.9,1,1.1,1.2
		s0.4,0.3,0.6,0.4L85,83.1L85,83.1z"/>
	<path fill="#FF0000" d="M81.7,81.9c-1,0-1.8-0.1-2.5-0.3s-1.1-0.5-1.4-0.9s-0.5-0.9-0.5-1.6c0-0.5,0.1-0.9,0.3-1.2s0.5-0.6,0.8-0.9
		s0.8-0.4,1.3-0.5s1.2-0.2,2-0.2c1,0,1.8,0.1,2.4,0.3s1.1,0.5,1.4,0.9s0.5,0.9,0.5,1.6c0,0.8-0.3,1.5-0.9,2
		C84.5,81.6,83.3,81.9,81.7,81.9z M81.7,80.8c1.4,0,2.3-0.2,2.8-0.5s0.7-0.7,0.7-1.2s-0.2-0.9-0.7-1.2s-1.4-0.5-2.8-0.5
		s-2.4,0.2-2.8,0.5s-0.7,0.7-0.7,1.2s0.2,0.9,0.6,1.2C79.4,80.7,80.3,80.8,81.7,80.8z"/>
	<path fill="#FF0000" d="M83.7,67.6l0.1-1c0.7,0.1,1.3,0.4,1.7,0.9s0.6,1,0.6,1.7c0,0.9-0.3,1.5-0.8,2.1s-1.4,0.8-2.4,0.8
		c-0.7,0-1.3-0.1-1.8-0.3s-0.9-0.6-1.1-1s-0.4-1-0.4-1.5c0-0.7,0.2-1.2,0.5-1.7s0.8-0.7,1.5-0.8l0.2,1c-0.4,0.1-0.7,0.3-0.9,0.5
		s-0.3,0.5-0.3,0.9c0,0.5,0.2,1,0.6,1.3s1,0.5,1.8,0.5s1.4-0.2,1.8-0.5s0.6-0.7,0.6-1.3c0-0.4-0.1-0.8-0.4-1S84.2,67.6,83.7,67.6z"
		/>
	<path fill="#FF0000" d="M86,65.6h-6.2v-0.9h0.9c-0.3-0.2-0.5-0.5-0.7-0.8s-0.3-0.7-0.3-1.1c0-0.5,0.1-0.8,0.3-1.1s0.5-0.5,0.8-0.6
		c-0.7-0.5-1.1-1.1-1.1-1.9c0-0.6,0.2-1.1,0.5-1.4s0.9-0.5,1.6-0.5H86v1h-3.9c-0.4,0-0.7,0-0.9,0.1s-0.3,0.2-0.4,0.4
		s-0.2,0.4-0.2,0.6c0,0.4,0.1,0.8,0.4,1.1s0.8,0.4,1.4,0.4H86V62h-4c-0.5,0-0.8,0.1-1.1,0.3s-0.4,0.5-0.4,0.8s0.1,0.6,0.2,0.8
		c0.1,0.2,0.4,0.4,0.7,0.5s0.7,0.2,1.3,0.2H86V65.6z"/>
</g>
<g>
	<path fill="#FF0000" d="M113.5,115.2l-6.2,1.9V116l3.6-1l1.3-0.4c-0.1,0-0.5-0.1-1.3-0.3l-3.6-1v-1.1l3.6-0.9l1.2-0.3l-1.2-0.4
		l-3.6-1.1v-1l6.2,1.9v1.1l-3.7,1l-1.1,0.2l4.8,1.3C113.5,114,113.5,115.2,113.5,115.2z"/>
	<path fill="#FF0000" d="M106.1,107.6h-1.2v-1.1h1.2V107.6z M113.5,107.6h-6.2v-1.1h6.2V107.6z"/>
	<path fill="#FF0000" d="M113.5,105h-6.2v-1h0.9c-0.7-0.5-1-1.1-1-2c0-0.4,0.1-0.7,0.2-1s0.3-0.5,0.5-0.7s0.5-0.3,0.8-0.3
		c0.2,0,0.5-0.1,1-0.1h3.8v1.1h-3.8c-0.4,0-0.8,0-1,0.1s-0.4,0.2-0.5,0.4s-0.2,0.5-0.2,0.7c0,0.4,0.1,0.8,0.4,1.2s0.8,0.5,1.6,0.5
		h3.4L113.5,105L113.5,105z"/>
	<path fill="#FF0000" d="M113.5,94.3h-0.8c0.6,0.4,0.9,1,0.9,1.7c0,0.5-0.1,1-0.4,1.4s-0.7,0.7-1.1,1s-1.1,0.3-1.7,0.3
		s-1.2-0.1-1.7-0.3s-0.9-0.5-1.2-0.9s-0.4-0.9-0.4-1.4c0-0.4,0.1-0.7,0.2-1s0.4-0.5,0.6-0.7h-3.1v-1h8.6L113.5,94.3L113.5,94.3z
		 M110.4,97.6c0.8,0,1.4-0.2,1.8-0.5s0.6-0.7,0.6-1.2s-0.2-0.9-0.6-1.2s-1-0.5-1.7-0.5c-0.9,0-1.5,0.2-1.9,0.5S108,95.5,108,96
		s0.2,0.9,0.6,1.2S109.6,97.6,110.4,97.6z"/>
	<path fill="#FF0000" d="M112.5,83.1h1v5.7c-0.3,0-0.5,0-0.7-0.1c-0.4-0.1-0.8-0.4-1.1-0.7s-0.8-0.8-1.3-1.4
		c-0.8-0.9-1.4-1.6-1.8-1.9s-0.9-0.5-1.3-0.5s-0.8,0.1-1.1,0.4s-0.4,0.7-0.4,1.2s0.2,0.9,0.5,1.2s0.7,0.5,1.3,0.5l-0.1,1.1
		c-0.8-0.1-1.4-0.4-1.8-0.8s-0.6-1.1-0.6-2c0-0.8,0.2-1.5,0.7-2s1-0.7,1.7-0.7c0.3,0,0.7,0.1,1,0.2s0.7,0.4,1,0.7s0.9,0.9,1.5,1.6
		c0.5,0.6,0.9,1,1.1,1.2s0.4,0.3,0.6,0.4v-4.1H112.5z"/>
	<path fill="#FF0000" d="M113.5,78.3h-6.2v-0.9h0.9c-0.3-0.2-0.5-0.5-0.7-0.8s-0.3-0.7-0.3-1.1c0-0.5,0.1-0.8,0.3-1.1
		s0.5-0.5,0.8-0.6c-0.7-0.5-1.1-1.1-1.1-1.9c0-0.6,0.2-1.1,0.5-1.4s0.9-0.5,1.6-0.5h4.3v1h-3.9c-0.4,0-0.7,0-0.9,0.1
		s-0.3,0.2-0.4,0.4s-0.2,0.4-0.2,0.6c0,0.4,0.1,0.8,0.4,1.1s0.8,0.4,1.4,0.4h3.6v1.1h-4c-0.5,0-0.8,0.1-1.1,0.3s-0.4,0.5-0.4,0.8
		s0.1,0.6,0.2,0.8s0.4,0.4,0.7,0.5s0.7,0.2,1.3,0.2h3.2C113.5,77.3,113.5,78.3,113.5,78.3z"/>
</g>
<g>
	<path fill="#FF0000" d="M135.9,114l0.9-0.2c0.1,0.3,0.1,0.6,0.1,0.8c0,0.4-0.1,0.7-0.2,0.9s-0.3,0.4-0.5,0.4s-0.6,0.1-1.2,0.1h-3.6
		v0.8h-0.8V116H129l-0.6-1h2.2v-1h0.8v1.1h3.6c0.3,0,0.5,0,0.6-0.1s0.2-0.1,0.2-0.2s0.1-0.2,0.1-0.4
		C135.9,114.4,135.9,114.2,135.9,114z"/>
	<path fill="#FF0000" d="M134.8,108.7l0.1-1.1c0.6,0.2,1.1,0.5,1.5,1s0.5,1.1,0.5,1.8c0,0.9-0.3,1.6-0.8,2.2s-1.3,0.8-2.4,0.8
		c-1,0-1.9-0.3-2.4-0.8s-0.9-1.2-0.9-2.1c0-0.8,0.3-1.5,0.8-2s1.4-0.8,2.4-0.8c0.1,0,0.2,0,0.3,0v4.6c0.7,0,1.2-0.2,1.6-0.6
		s0.5-0.8,0.5-1.3c0-0.4-0.1-0.7-0.3-1S135.3,108.9,134.8,108.7z M133.1,112.2v-3.5c-0.5,0-0.9,0.2-1.2,0.4
		c-0.4,0.3-0.6,0.8-0.6,1.3s0.2,0.9,0.5,1.2S132.6,112.1,133.1,112.2z"/>
	<path fill="#FF0000" d="M136.8,106.3h-6.2v-0.9h0.9c-0.3-0.2-0.5-0.5-0.7-0.8s-0.3-0.7-0.3-1.1c0-0.5,0.1-0.8,0.3-1.1
		s0.5-0.5,0.8-0.6c-0.7-0.5-1.1-1.1-1.1-1.9c0-0.6,0.2-1.1,0.5-1.4s0.9-0.5,1.6-0.5h4.3v1H133c-0.4,0-0.7,0-0.9,0.1
		s-0.3,0.2-0.4,0.4s-0.2,0.4-0.2,0.6c0,0.4,0.1,0.8,0.4,1.1s0.8,0.4,1.4,0.4h3.6v1.1h-4c-0.5,0-0.8,0.1-1.1,0.3s-0.4,0.5-0.4,0.8
		s0.1,0.6,0.2,0.8s0.4,0.4,0.7,0.5s0.7,0.2,1.3,0.2h3.2L136.8,106.3L136.8,106.3z"/>
	<path fill="#FF0000" d="M139.2,96.3h-8.6v-1h0.8c-0.3-0.2-0.6-0.5-0.7-0.8s-0.2-0.6-0.2-1c0-0.5,0.1-1,0.4-1.4s0.7-0.7,1.2-0.9
		s1-0.3,1.6-0.3s1.2,0.1,1.7,0.3s0.9,0.6,1.2,1s0.4,0.9,0.4,1.4c0,0.4-0.1,0.7-0.2,0.9s-0.3,0.5-0.6,0.7h3L139.2,96.3L139.2,96.3z
		 M133.7,95.4c0.8,0,1.4-0.2,1.8-0.5s0.6-0.7,0.6-1.2s-0.2-0.9-0.6-1.2s-1-0.5-1.8-0.5s-1.4,0.2-1.8,0.5s-0.6,0.7-0.6,1.2
		c0,0.4,0.2,0.8,0.6,1.2S132.9,95.4,133.7,95.4z"/>
	<path fill="#FF0000" d="M134.8,85.4l0.1-1.1c0.6,0.2,1.1,0.5,1.5,1s0.5,1.1,0.5,1.8c0,0.9-0.3,1.6-0.8,2.2s-1.3,0.8-2.4,0.8
		c-1,0-1.9-0.3-2.4-0.8s-0.9-1.2-0.9-2.1c0-0.8,0.3-1.5,0.8-2s1.4-0.8,2.4-0.8c0.1,0,0.2,0,0.3,0V89c0.7,0,1.2-0.2,1.6-0.6
		s0.5-0.8,0.5-1.3c0-0.4-0.1-0.7-0.3-1S135.3,85.5,134.8,85.4z M133.1,88.8v-3.5c-0.5,0-0.9,0.2-1.2,0.4c-0.4,0.3-0.6,0.8-0.6,1.3
		s0.2,0.9,0.5,1.2S132.6,88.8,133.1,88.8z"/>
	<path fill="#FF0000" d="M136.8,83h-6.2v-1h0.9c-0.4-0.2-0.7-0.5-0.9-0.7s-0.2-0.4-0.2-0.7c0-0.4,0.1-0.7,0.3-1.1l1,0.4
		c-0.2,0.3-0.2,0.5-0.2,0.8c0,0.2,0.1,0.4,0.2,0.6s0.3,0.3,0.6,0.4c0.4,0.1,0.8,0.2,1.2,0.2h3.3L136.8,83L136.8,83z"/>
	<path fill="#FF0000" d="M136,75c0.3,0.4,0.6,0.8,0.7,1.1s0.2,0.7,0.2,1.2c0,0.7-0.2,1.2-0.5,1.6s-0.8,0.6-1.3,0.6
		c-0.3,0-0.6-0.1-0.8-0.2s-0.5-0.3-0.6-0.5s-0.3-0.5-0.3-0.8c-0.1-0.2-0.1-0.5-0.2-0.9c-0.1-0.9-0.2-1.5-0.4-1.9c-0.1,0-0.2,0-0.3,0
		c-0.4,0-0.7,0.1-0.9,0.3c-0.2,0.3-0.4,0.7-0.4,1.2s0.1,0.9,0.3,1.1s0.5,0.4,0.9,0.5l-0.1,1c-0.4-0.1-0.8-0.2-1.1-0.5
		s-0.5-0.5-0.6-0.9s-0.2-0.9-0.2-1.4s0.1-1,0.2-1.3s0.3-0.6,0.5-0.7s0.4-0.3,0.7-0.3c0.2,0,0.5-0.1,1-0.1h1.4c1,0,1.6,0,1.9-0.1
		s0.5-0.1,0.7-0.3v1.1C136.6,74.9,136.3,75,136,75z M133.7,75.1c0.2,0.4,0.3,1,0.4,1.7c0.1,0.4,0.1,0.7,0.2,0.9s0.2,0.3,0.3,0.4
		s0.3,0.1,0.5,0.1c0.3,0,0.5-0.1,0.7-0.3s0.3-0.5,0.3-0.9s-0.1-0.8-0.3-1.1s-0.4-0.5-0.7-0.7c-0.2-0.1-0.6-0.2-1.1-0.2L133.7,75.1
		L133.7,75.1z"/>
	<path fill="#FF0000" d="M135.9,70.1l0.9-0.2c0.1,0.3,0.1,0.6,0.1,0.8c0,0.4-0.1,0.7-0.2,0.9s-0.3,0.4-0.5,0.4s-0.6,0.1-1.2,0.1
		h-3.6V73h-0.8v-0.8H129l-0.6-1h2.2v-1.1h0.8v1.1h3.6c0.3,0,0.5,0,0.6-0.1s0.2-0.1,0.2-0.2s0.1-0.2,0.1-0.4
		C135.9,70.5,135.9,70.3,135.9,70.1z"/>
	<path fill="#FF0000" d="M136.8,65h-0.9c0.7,0.5,1.1,1.1,1.1,2c0,0.4-0.1,0.7-0.2,1s-0.3,0.6-0.5,0.7s-0.5,0.3-0.8,0.3
		c-0.2,0-0.5,0.1-1,0.1h-3.9V68h3.5c0.6,0,0.9,0,1.1-0.1c0.3-0.1,0.5-0.2,0.7-0.4s0.2-0.5,0.2-0.8s-0.1-0.6-0.2-0.9
		s-0.4-0.5-0.7-0.6S134.5,65,134,65h-3.3v-1.1h6.2V65H136.8z"/>
	<path fill="#FF0000" d="M136.8,62.4h-6.2v-0.9h0.9c-0.4-0.2-0.7-0.5-0.9-0.7s-0.2-0.4-0.2-0.7c0-0.4,0.1-0.7,0.3-1.1l1,0.4
		c-0.2,0.3-0.2,0.5-0.2,0.8c0,0.2,0.1,0.4,0.2,0.6s0.3,0.3,0.6,0.4c0.4,0.1,0.8,0.2,1.2,0.2h3.3L136.8,62.4L136.8,62.4z"/>
	<path fill="#FF0000" d="M134.8,54.2l0.1-1.1c0.6,0.2,1.1,0.5,1.5,1s0.5,1.1,0.5,1.8c0,0.9-0.3,1.6-0.8,2.2s-1.3,0.8-2.4,0.8
		c-1,0-1.9-0.3-2.4-0.8s-0.9-1.2-0.9-2.1c0-0.8,0.3-1.5,0.8-2s1.4-0.8,2.4-0.8c0.1,0,0.2,0,0.3,0v4.6c0.7,0,1.2-0.2,1.6-0.6
		s0.5-0.8,0.5-1.3c0-0.4-0.1-0.7-0.3-1S135.3,54.3,134.8,54.2z M133.1,57.6v-3.5c-0.5,0-0.9,0.2-1.2,0.4c-0.4,0.3-0.6,0.8-0.6,1.3
		s0.2,0.9,0.5,1.2S132.6,57.6,133.1,57.6z"/>
	<path fill="#FF0000" d="M143.6,116.6c-1,0-1.8-0.1-2.5-0.3s-1.1-0.5-1.4-0.9s-0.5-0.9-0.5-1.6c0-0.5,0.1-0.9,0.3-1.2
		s0.5-0.6,0.8-0.9s0.8-0.4,1.3-0.5s1.2-0.2,2-0.2c1,0,1.8,0.1,2.4,0.3s1.1,0.5,1.4,0.9s0.5,0.9,0.5,1.6c0,0.8-0.3,1.5-0.9,2
		C146.4,116.3,145.2,116.6,143.6,116.6z M143.6,115.5c1.4,0,2.3-0.2,2.8-0.5s0.7-0.7,0.7-1.2s-0.2-0.9-0.7-1.2s-1.4-0.5-2.8-0.5
		c-1.4,0-2.4,0.2-2.8,0.5s-0.7,0.7-0.7,1.2s0.2,0.9,0.6,1.2C141.2,115.3,142.2,115.5,143.6,115.5z"/>
	<path fill="#FF0000" d="M145.5,102.2l0.1-1c0.7,0.1,1.3,0.4,1.7,0.9s0.6,1,0.6,1.7c0,0.9-0.3,1.5-0.8,2.1s-1.4,0.8-2.4,0.8
		c-0.7,0-1.3-0.1-1.8-0.3s-0.9-0.6-1.1-1s-0.4-1-0.4-1.5c0-0.7,0.2-1.2,0.5-1.7s0.8-0.7,1.5-0.8l0.2,1c-0.4,0.1-0.7,0.3-0.9,0.5
		s-0.3,0.5-0.3,0.9c0,0.5,0.2,1,0.6,1.3s1,0.5,1.8,0.5s1.4-0.2,1.8-0.5s0.6-0.7,0.6-1.3c0-0.4-0.1-0.8-0.4-1
		S146.1,102.3,145.5,102.2z"/>
	<path fill="#FF0000" d="M147.8,100.3h-6.2v-0.9h0.9c-0.3-0.2-0.5-0.5-0.7-0.8s-0.3-0.7-0.3-1.1c0-0.5,0.1-0.8,0.3-1.1
		s0.5-0.5,0.8-0.6c-0.7-0.5-1.1-1.1-1.1-1.9c0-0.6,0.2-1.1,0.5-1.4s0.9-0.5,1.6-0.5h4.3v1H144c-0.4,0-0.7,0-0.9,0.1
		s-0.3,0.2-0.4,0.4s-0.2,0.4-0.2,0.6c0,0.4,0.1,0.8,0.4,1.1s0.8,0.4,1.4,0.4h3.6v1.1h-4c-0.5,0-0.8,0.1-1.1,0.3s-0.4,0.5-0.4,0.8
		s0.1,0.6,0.2,0.8s0.4,0.4,0.7,0.5s0.7,0.2,1.3,0.2h3.2L147.8,100.3L147.8,100.3z"/>
</g>
<g>
	<path fill="#FF0000" d="M163.2,114l0.9-0.2c0.1,0.3,0.1,0.6,0.1,0.8c0,0.4-0.1,0.7-0.2,0.9s-0.3,0.4-0.5,0.4s-0.6,0.1-1.2,0.1h-3.6
		v0.8h-0.8V116h-1.5l-0.6-1h2.2v-1h0.8v1.1h3.6c0.3,0,0.5,0,0.6-0.1s0.2-0.1,0.2-0.2s0.1-0.2,0.1-0.4
		C163.3,114.4,163.2,114.2,163.2,114z"/>
	<path fill="#FF0000" d="M162.2,108.7l0.1-1.1c0.6,0.2,1.1,0.5,1.5,1s0.5,1.1,0.5,1.8c0,0.9-0.3,1.6-0.8,2.2s-1.3,0.8-2.4,0.8
		c-1,0-1.9-0.3-2.4-0.8s-0.9-1.2-0.9-2.1c0-0.8,0.3-1.5,0.8-2s1.4-0.8,2.4-0.8c0.1,0,0.2,0,0.3,0v4.6c0.7,0,1.2-0.2,1.6-0.6
		s0.5-0.8,0.5-1.3c0-0.4-0.1-0.7-0.3-1S162.6,108.9,162.2,108.7z M160.4,112.2v-3.5c-0.5,0-0.9,0.2-1.2,0.4
		c-0.4,0.3-0.6,0.8-0.6,1.3s0.2,0.9,0.5,1.2S159.9,112.1,160.4,112.2z"/>
	<path fill="#FF0000" d="M164.2,106.3H158v-0.9h0.9c-0.3-0.2-0.5-0.5-0.7-0.8s-0.3-0.7-0.3-1.1c0-0.5,0.1-0.8,0.3-1.1
		s0.5-0.5,0.8-0.6c-0.7-0.5-1.1-1.1-1.1-1.9c0-0.6,0.2-1.1,0.5-1.4s0.9-0.5,1.6-0.5h4.3v1h-3.9c-0.4,0-0.7,0-0.9,0.1
		s-0.3,0.2-0.4,0.4s-0.2,0.4-0.2,0.6c0,0.4,0.1,0.8,0.4,1.1s0.8,0.4,1.4,0.4h3.6v1.1h-4c-0.5,0-0.8,0.1-1.1,0.3s-0.4,0.5-0.4,0.8
		s0.1,0.6,0.2,0.8s0.4,0.4,0.7,0.5s0.7,0.2,1.3,0.2h3.2L164.2,106.3L164.2,106.3z"/>
	<path fill="#FF0000" d="M166.5,96.3h-8.6v-1h0.8c-0.3-0.2-0.6-0.5-0.7-0.8s-0.2-0.6-0.2-1c0-0.5,0.1-1,0.4-1.4s0.7-0.7,1.2-0.9
		s1-0.3,1.6-0.3s1.2,0.1,1.7,0.3s0.9,0.6,1.2,1s0.4,0.9,0.4,1.4c0,0.4-0.1,0.7-0.2,0.9s-0.3,0.5-0.6,0.7h3L166.5,96.3L166.5,96.3z
		 M161.1,95.4c0.8,0,1.4-0.2,1.8-0.5s0.6-0.7,0.6-1.2s-0.2-0.9-0.6-1.2s-1-0.5-1.8-0.5s-1.4,0.2-1.8,0.5s-0.6,0.7-0.6,1.2
		c0,0.4,0.2,0.8,0.6,1.2S160.3,95.4,161.1,95.4z"/>
	<path fill="#FF0000" d="M162.2,85.4l0.1-1.1c0.6,0.2,1.1,0.5,1.5,1s0.5,1.1,0.5,1.8c0,0.9-0.3,1.6-0.8,2.2s-1.3,0.8-2.4,0.8
		c-1,0-1.9-0.3-2.4-0.8s-0.9-1.2-0.9-2.1c0-0.8,0.3-1.5,0.8-2s1.4-0.8,2.4-0.8c0.1,0,0.2,0,0.3,0V89c0.7,0,1.2-0.2,1.6-0.6
		s0.5-0.8,0.5-1.3c0-0.4-0.1-0.7-0.3-1S162.6,85.5,162.2,85.4z M160.4,88.8v-3.5c-0.5,0-0.9,0.2-1.2,0.4c-0.4,0.3-0.6,0.8-0.6,1.3
		s0.2,0.9,0.5,1.2S159.9,88.8,160.4,88.8z"/>
	<path fill="#FF0000" d="M164.2,83H158v-1h0.9c-0.4-0.2-0.7-0.5-0.9-0.7s-0.2-0.4-0.2-0.7c0-0.4,0.1-0.7,0.3-1.1l1,0.4
		c-0.2,0.3-0.2,0.5-0.2,0.8c0,0.2,0.1,0.4,0.2,0.6s0.3,0.3,0.6,0.4c0.4,0.1,0.8,0.2,1.2,0.2h3.3L164.2,83L164.2,83z"/>
	<path fill="#FF0000" d="M163.4,75c0.3,0.4,0.6,0.8,0.7,1.1s0.2,0.7,0.2,1.2c0,0.7-0.2,1.2-0.5,1.6s-0.8,0.6-1.3,0.6
		c-0.3,0-0.6-0.1-0.8-0.2s-0.5-0.3-0.6-0.5s-0.3-0.5-0.3-0.8c-0.1-0.2-0.1-0.5-0.2-0.9c-0.1-0.9-0.2-1.5-0.4-1.9c-0.1,0-0.2,0-0.3,0
		c-0.4,0-0.7,0.1-0.9,0.3c-0.2,0.3-0.4,0.7-0.4,1.2s0.1,0.9,0.3,1.1s0.5,0.4,0.9,0.5l-0.1,1c-0.4-0.1-0.8-0.2-1.1-0.5
		s-0.5-0.5-0.6-0.9s-0.2-0.9-0.2-1.4s0.1-1,0.2-1.3s0.3-0.6,0.5-0.7s0.4-0.3,0.7-0.3c0.2,0,0.5-0.1,1-0.1h1.4c1,0,1.6,0,1.9-0.1
		s0.5-0.1,0.7-0.3v1.1C163.9,74.9,163.7,75,163.4,75z M161,75.1c0.2,0.4,0.3,1,0.4,1.7c0.1,0.4,0.1,0.7,0.2,0.9s0.2,0.3,0.3,0.4
		s0.3,0.1,0.5,0.1c0.3,0,0.5-0.1,0.7-0.3s0.3-0.5,0.3-0.9s-0.1-0.8-0.3-1.1s-0.4-0.5-0.7-0.7c-0.2-0.1-0.6-0.2-1.1-0.2L161,75.1
		L161,75.1z"/>
	<path fill="#FF0000" d="M163.2,70.1l0.9-0.2c0.1,0.3,0.1,0.6,0.1,0.8c0,0.4-0.1,0.7-0.2,0.9s-0.3,0.4-0.5,0.4s-0.6,0.1-1.2,0.1
		h-3.6V73h-0.8v-0.8h-1.5l-0.6-1h2.2v-1.1h0.8v1.1h3.6c0.3,0,0.5,0,0.6-0.1s0.2-0.1,0.2-0.2s0.1-0.2,0.1-0.4
		C163.3,70.5,163.2,70.3,163.2,70.1z"/>
	<path fill="#FF0000" d="M164.2,65h-0.9c0.7,0.5,1.1,1.1,1.1,2c0,0.4-0.1,0.7-0.2,1s-0.3,0.6-0.5,0.7s-0.5,0.3-0.8,0.3
		c-0.2,0-0.5,0.1-1,0.1H158V68h3.5c0.6,0,0.9,0,1.1-0.1c0.3-0.1,0.5-0.2,0.7-0.4s0.2-0.5,0.2-0.8s-0.1-0.6-0.2-0.9s-0.4-0.5-0.7-0.6
		s-0.7-0.2-1.2-0.2h-3.3v-1.1h6.2V65H164.2z"/>
	<path fill="#FF0000" d="M164.2,62.4H158v-0.9h0.9c-0.4-0.2-0.7-0.5-0.9-0.7s-0.2-0.4-0.2-0.7c0-0.4,0.1-0.7,0.3-1.1l1,0.4
		c-0.2,0.3-0.2,0.5-0.2,0.8c0,0.2,0.1,0.4,0.2,0.6s0.3,0.3,0.6,0.4c0.4,0.1,0.8,0.2,1.2,0.2h3.3L164.2,62.4L164.2,62.4z"/>
	<path fill="#FF0000" d="M162.2,54.1l0.1-1.1c0.6,0.2,1.1,0.5,1.5,1s0.5,1.1,0.5,1.8c0,0.9-0.3,1.6-0.8,2.2s-1.3,0.8-2.4,0.8
		c-1,0-1.9-0.3-2.4-0.8s-0.9-1.2-0.9-2.1c0-0.8,0.3-1.5,0.8-2S160,53,161,53c0.1,0,0.2,0,0.3,0v4.6c0.7,0,1.2-0.2,1.6-0.6
		s0.5-0.8,0.5-1.3c0-0.4-0.1-0.7-0.3-1S162.6,54.3,162.2,54.1z M160.4,57.6v-3.5c-0.5,0-0.9,0.2-1.2,0.4c-0.4,0.3-0.6,0.8-0.6,1.3
		s0.2,0.9,0.5,1.2S159.9,57.6,160.4,57.6z"/>
	<path fill="#FF0000" d="M174.1,111.1h1v5.7c-0.3,0-0.5,0-0.7-0.1c-0.4-0.1-0.8-0.4-1.1-0.7s-0.8-0.8-1.3-1.4
		c-0.8-0.9-1.4-1.6-1.8-1.9s-0.9-0.5-1.3-0.5c-0.4,0-0.8,0.1-1.1,0.4s-0.4,0.7-0.4,1.2s0.2,0.9,0.5,1.2s0.7,0.5,1.3,0.5l-0.1,1.1
		c-0.8-0.1-1.4-0.4-1.8-0.8s-0.6-1.1-0.6-2c0-0.8,0.2-1.5,0.7-2s1-0.7,1.7-0.7c0.3,0,0.7,0.1,1,0.2s0.7,0.4,1,0.7s0.9,0.9,1.5,1.6
		c0.5,0.6,0.9,1,1.1,1.2s0.4,0.3,0.6,0.4v-4.1H174.1z"/>
	<path fill="#FF0000" d="M175.2,106.3H169v-0.9h0.9c-0.3-0.2-0.5-0.5-0.7-0.8s-0.3-0.7-0.3-1.1c0-0.5,0.1-0.8,0.3-1.1
		s0.5-0.5,0.8-0.6c-0.7-0.5-1.1-1.1-1.1-1.9c0-0.6,0.2-1.1,0.5-1.4s0.9-0.5,1.6-0.5h4.3v1h-3.9c-0.4,0-0.7,0-0.9,0.1
		s-0.3,0.2-0.4,0.4s-0.2,0.4-0.2,0.6c0,0.4,0.1,0.8,0.4,1.1s0.8,0.4,1.4,0.4h3.6v1.1h-4c-0.5,0-0.8,0.1-1.1,0.3s-0.4,0.5-0.4,0.8
		s0.1,0.6,0.2,0.8s0.4,0.4,0.7,0.5s0.7,0.2,1.3,0.2h3.2L175.2,106.3L175.2,106.3z"/>
</g>
<g>
	<path fill="#FF0000" d="M191.7,116.3h-8.6v-1.1h3.1c-0.6-0.5-0.9-1.1-0.9-1.9c0-0.5,0.1-0.9,0.3-1.2s0.4-0.6,0.8-0.7
		s0.8-0.2,1.4-0.2h3.9v1.1h-3.9c-0.5,0-0.9,0.1-1.2,0.3s-0.4,0.6-0.4,1c0,0.3,0.1,0.6,0.2,0.9s0.4,0.5,0.7,0.6s0.7,0.2,1.1,0.2h3.4
		L191.7,116.3L191.7,116.3z"/>
	<path fill="#FF0000" d="M191.7,105.6h-0.9c0.7,0.5,1.1,1.1,1.1,2c0,0.4-0.1,0.7-0.2,1s-0.3,0.6-0.5,0.7s-0.5,0.3-0.8,0.3
		c-0.2,0-0.5,0.1-1,0.1h-3.9v-1.1h3.5c0.6,0,0.9,0,1.1-0.1c0.3-0.1,0.5-0.2,0.7-0.4s0.2-0.5,0.2-0.8s-0.1-0.6-0.2-0.9
		s-0.4-0.5-0.7-0.6s-0.7-0.2-1.2-0.2h-3.3v-1.1h6.2v1.1H191.7z"/>
	<path fill="#FF0000" d="M191.7,103h-6.2v-1h0.9c-0.3-0.2-0.5-0.5-0.7-0.8s-0.3-0.7-0.3-1.1c0-0.5,0.1-0.8,0.3-1.1s0.5-0.5,0.8-0.6
		c-0.7-0.5-1.1-1.1-1.1-1.9c0-0.6,0.2-1.1,0.5-1.4s0.9-0.5,1.6-0.5h4.3v1h-3.9c-0.4,0-0.7,0-0.9,0.1s-0.3,0.2-0.4,0.4
		s-0.2,0.4-0.2,0.6c0,0.4,0.1,0.8,0.4,1.1s0.8,0.4,1.4,0.4h3.6v1.1h-4c-0.5,0-0.8,0.1-1.1,0.3s-0.4,0.5-0.4,0.8s0.1,0.6,0.2,0.8
		s0.4,0.4,0.7,0.5s0.7,0.2,1.3,0.2h3.2L191.7,103L191.7,103z"/>
	<path fill="#FF0000" d="M184.3,93h-1.2v-1.1h1.2V93z M191.7,93h-6.2v-1.1h6.2V93z"/>
	<path fill="#FF0000" d="M191.7,86.3h-0.8c0.6,0.4,0.9,1,0.9,1.7c0,0.5-0.1,1-0.4,1.4s-0.7,0.7-1.1,1s-1.1,0.3-1.7,0.3
		c-0.6,0-1.2-0.1-1.7-0.3s-0.9-0.5-1.2-0.9s-0.4-0.9-0.4-1.4c0-0.4,0.1-0.7,0.2-1s0.4-0.5,0.6-0.7H183v-1h8.6L191.7,86.3L191.7,86.3
		z M188.6,89.6c0.8,0,1.4-0.2,1.8-0.5s0.6-0.7,0.6-1.2s-0.2-0.9-0.6-1.2s-1-0.5-1.7-0.5c-0.9,0-1.5,0.2-1.9,0.5s-0.6,0.7-0.6,1.2
		s0.2,0.9,0.6,1.2S187.8,89.6,188.6,89.6z"/>
	<path fill="#FF0000" d="M184.3,83.6h-1.2v-1.1h1.2V83.6z M191.7,83.6h-6.2v-1.1h6.2V83.6z"/>
	<path fill="#FF0000" d="M190.8,78.7l0.9-0.2c0.1,0.3,0.1,0.6,0.1,0.8c0,0.4-0.1,0.7-0.2,0.9s-0.3,0.4-0.5,0.4s-0.6,0.1-1.2,0.1
		h-3.6v0.8h-0.8v-0.8H184l-0.6-1h2.2v-1.1h0.8v1.1h3.6c0.3,0,0.5,0,0.6-0.1s0.2-0.1,0.2-0.2s0.1-0.2,0.1-0.4
		C190.8,79,190.8,78.9,190.8,78.7z"/>
	<path fill="#FF0000" d="M194.1,77.7l-1,0.1c0.1-0.2,0.1-0.4,0.1-0.6s0-0.4-0.1-0.6s-0.2-0.3-0.3-0.3c-0.1-0.1-0.4-0.2-0.8-0.3
		c-0.1,0-0.1-0.1-0.3-0.1l-6.2,2.4v-1.1l3.6-1.3c0.5-0.2,0.9-0.3,1.4-0.5c-0.5-0.1-1-0.3-1.4-0.4l-3.6-1.3v-1.1l6.3,2.4
		c0.7,0.3,1.2,0.5,1.4,0.6c0.3,0.2,0.6,0.4,0.8,0.6s0.2,0.5,0.2,0.9C194.2,77.2,194.2,77.4,194.1,77.7z"/>
	<path fill="#FF0000" d="M202.7,116.3h-6.2v-0.9h0.9c-0.4-0.2-0.7-0.5-0.9-0.7s-0.2-0.4-0.2-0.7c0-0.4,0.1-0.7,0.3-1.1l1,0.4
		c-0.2,0.3-0.2,0.5-0.2,0.8c0,0.2,0.1,0.4,0.2,0.6s0.3,0.3,0.6,0.4c0.4,0.1,0.8,0.2,1.2,0.2h3.3L202.7,116.3L202.7,116.3z"/>
	<path fill="#FF0000" d="M200.7,108.1l0.1-1.1c0.6,0.2,1.1,0.5,1.5,1s0.5,1.1,0.5,1.8c0,0.9-0.3,1.6-0.8,2.2s-1.3,0.8-2.4,0.8
		c-1,0-1.9-0.3-2.4-0.8s-0.9-1.2-0.9-2.1c0-0.8,0.3-1.5,0.8-2s1.4-0.8,2.4-0.8c0.1,0,0.2,0,0.3,0v4.6c0.7,0,1.2-0.2,1.6-0.6
		s0.5-0.8,0.5-1.3c0-0.4-0.1-0.7-0.3-1S201.2,108.2,200.7,108.1z M199,111.5V108c-0.5,0-0.9,0.2-1.2,0.4c-0.4,0.3-0.6,0.8-0.6,1.3
		s0.2,0.9,0.5,1.2S198.5,111.5,199,111.5z"/>
	<path fill="#FF0000" d="M202.7,105.7h-8.6v-1.1h8.6V105.7z"/>
	<path fill="#FF0000" d="M202,98.9c0.3,0.4,0.6,0.8,0.7,1.1s0.2,0.7,0.2,1.2c0,0.7-0.2,1.2-0.5,1.6s-0.8,0.6-1.3,0.6
		c-0.3,0-0.6-0.1-0.8-0.2s-0.5-0.3-0.6-0.5s-0.3-0.5-0.3-0.8c-0.1-0.2-0.1-0.5-0.2-0.9c-0.1-0.9-0.2-1.5-0.4-1.9c-0.1,0-0.2,0-0.3,0
		c-0.4,0-0.7,0.1-0.9,0.3c-0.2,0.3-0.4,0.7-0.4,1.2s0.1,0.9,0.3,1.1s0.5,0.4,0.9,0.5l-0.1,1c-0.4-0.1-0.8-0.2-1.1-0.5
		s-0.5-0.5-0.6-0.9s-0.2-0.9-0.2-1.4s0.1-1,0.2-1.3s0.3-0.6,0.5-0.7s0.4-0.3,0.7-0.3c0.2,0,0.5-0.1,1-0.1h1.4c1,0,1.6,0,1.9-0.1
		s0.5-0.1,0.7-0.3v1.1C202.5,98.8,202.2,98.9,202,98.9z M199.6,99c0.2,0.4,0.3,1,0.4,1.7c0.1,0.4,0.1,0.7,0.2,0.9s0.2,0.3,0.3,0.4
		s0.3,0.1,0.5,0.1c0.3,0,0.5-0.1,0.7-0.3s0.3-0.5,0.3-0.9s-0.1-0.8-0.3-1.1s-0.4-0.5-0.7-0.7c-0.2-0.1-0.6-0.2-1.1-0.2L199.6,99
		L199.6,99z"/>
	<path fill="#FF0000" d="M201.8,94l0.9-0.2c0.1,0.3,0.1,0.6,0.1,0.8c0,0.4-0.1,0.7-0.2,0.9s-0.3,0.4-0.5,0.4s-0.6,0.1-1.2,0.1h-3.6
		v0.8h-0.8V96H195l-0.6-1h2.2v-1h0.8v1.1h3.6c0.3,0,0.5,0,0.6-0.1s0.2-0.1,0.2-0.2s0.1-0.2,0.1-0.4C201.8,94.3,201.8,94.2,201.8,94z
		"/>
	<path fill="#FF0000" d="M195.3,93h-1.2v-1.1h1.2V93z M202.7,93h-6.2v-1.1h6.2V93z"/>
	<path fill="#FF0000" d="M202.7,88.6l-6.2,2.4v-1.1l3.7-1.3c0.4-0.1,0.8-0.3,1.3-0.4c-0.3-0.1-0.7-0.2-1.2-0.4l-3.8-1.4v-1.1
		l6.2,2.4V88.6z"/>
	<path fill="#FF0000" d="M200.7,80.3l0.1-1.1c0.6,0.2,1.1,0.5,1.5,1s0.5,1.1,0.5,1.8c0,0.9-0.3,1.6-0.8,2.2s-1.3,0.8-2.4,0.8
		c-1,0-1.9-0.3-2.4-0.8s-0.9-1.2-0.9-2.1c0-0.8,0.3-1.5,0.8-2s1.4-0.8,2.4-0.8c0.1,0,0.2,0,0.3,0v4.6c0.7,0,1.2-0.2,1.6-0.6
		s0.5-0.8,0.5-1.3c0-0.4-0.1-0.7-0.3-1S201.2,80.5,200.7,80.3z M199,83.8v-3.5c-0.5,0-0.9,0.2-1.2,0.4c-0.4,0.3-0.6,0.8-0.6,1.3
		s0.2,0.9,0.5,1.2S198.5,83.8,199,83.8z"/>
</g>
<g>
	<path fill="#FF0000" d="M219.1,116.3h-8.6v-1.1h3.1c-0.6-0.5-0.9-1.1-0.9-1.9c0-0.5,0.1-0.9,0.3-1.2s0.4-0.6,0.8-0.7
		s0.8-0.2,1.4-0.2h3.9v1.1h-3.9c-0.5,0-0.9,0.1-1.2,0.3s-0.4,0.6-0.4,1c0,0.3,0.1,0.6,0.2,0.9s0.4,0.5,0.7,0.6s0.7,0.2,1.1,0.2h3.4
		L219.1,116.3L219.1,116.3z"/>
	<path fill="#FF0000" d="M219.1,105.6h-0.9c0.7,0.5,1.1,1.1,1.1,2c0,0.4-0.1,0.7-0.2,1s-0.3,0.6-0.5,0.7s-0.5,0.3-0.8,0.3
		c-0.2,0-0.5,0.1-1,0.1h-3.9v-1.1h3.5c0.6,0,0.9,0,1.1-0.1c0.3-0.1,0.5-0.2,0.7-0.4s0.2-0.5,0.2-0.8s-0.1-0.6-0.2-0.9
		s-0.4-0.5-0.7-0.6s-0.7-0.2-1.2-0.2H213v-1.1h6.2v1.1H219.1z"/>
	<path fill="#FF0000" d="M219.1,103h-6.2v-1h0.9c-0.3-0.2-0.5-0.5-0.7-0.8s-0.3-0.7-0.3-1.1c0-0.5,0.1-0.8,0.3-1.1s0.5-0.5,0.8-0.6
		c-0.7-0.5-1.1-1.1-1.1-1.9c0-0.6,0.2-1.1,0.5-1.4s0.9-0.5,1.6-0.5h4.3v1h-3.9c-0.4,0-0.7,0-0.9,0.1s-0.3,0.2-0.4,0.4
		s-0.2,0.4-0.2,0.6c0,0.4,0.1,0.8,0.4,1.1s0.8,0.4,1.4,0.4h3.6v1.1h-4c-0.5,0-0.8,0.1-1.1,0.3s-0.4,0.5-0.4,0.8s0.1,0.6,0.2,0.8
		s0.4,0.4,0.7,0.5s0.7,0.2,1.3,0.2h3.2L219.1,103L219.1,103z"/>
	<path fill="#FF0000" d="M211.7,93h-1.2v-1.1h1.2V93z M219.1,93h-6.2v-1.1h6.2V93z"/>
	<path fill="#FF0000" d="M219.1,86.3h-0.8c0.6,0.4,0.9,1,0.9,1.7c0,0.5-0.1,1-0.4,1.4s-0.7,0.7-1.1,1s-1.1,0.3-1.7,0.3
		c-0.6,0-1.2-0.1-1.7-0.3s-0.9-0.5-1.2-0.9s-0.4-0.9-0.4-1.4c0-0.4,0.1-0.7,0.2-1s0.4-0.5,0.6-0.7h-3.1v-1h8.6L219.1,86.3
		L219.1,86.3z M216,89.6c0.8,0,1.4-0.2,1.8-0.5s0.6-0.7,0.6-1.2s-0.2-0.9-0.6-1.2s-1-0.5-1.7-0.5c-0.9,0-1.5,0.2-1.9,0.5
		s-0.6,0.7-0.6,1.2s0.2,0.9,0.6,1.2S215.1,89.6,216,89.6z"/>
	<path fill="#FF0000" d="M211.7,83.6h-1.2v-1.1h1.2V83.6z M219.1,83.6h-6.2v-1.1h6.2V83.6z"/>
	<path fill="#FF0000" d="M218.1,78.7l0.9-0.2c0.1,0.3,0.1,0.6,0.1,0.8c0,0.4-0.1,0.7-0.2,0.9s-0.3,0.4-0.5,0.4s-0.6,0.1-1.2,0.1
		h-3.6v0.8h-0.8v-0.8h-1.5l-0.6-1h2.2v-1.1h0.8v1.1h3.6c0.3,0,0.5,0,0.6-0.1s0.2-0.1,0.2-0.2s0.1-0.2,0.1-0.4
		C218.2,79,218.1,78.9,218.1,78.7z"/>
	<path fill="#FF0000" d="M221.5,77.7l-1,0.1c0.1-0.2,0.1-0.4,0.1-0.6s0-0.4-0.1-0.6s-0.2-0.3-0.3-0.3c-0.1-0.1-0.4-0.2-0.8-0.3
		c-0.1,0-0.1-0.1-0.3-0.1l-6.2,2.4v-1.1l3.6-1.3c0.5-0.2,0.9-0.3,1.4-0.5c-0.5-0.1-1-0.3-1.4-0.4l-3.6-1.3v-1.1l6.3,2.4
		c0.7,0.3,1.2,0.5,1.4,0.6c0.3,0.2,0.6,0.4,0.8,0.6s0.2,0.5,0.2,0.9C221.6,77.2,221.5,77.4,221.5,77.7z"/>
	<path fill="#FF0000" d="M229.3,112.3c0.3,0.4,0.6,0.8,0.7,1.1s0.2,0.7,0.2,1.2c0,0.7-0.2,1.2-0.5,1.6s-0.8,0.6-1.3,0.6
		c-0.3,0-0.6-0.1-0.8-0.2s-0.5-0.3-0.6-0.5s-0.3-0.5-0.3-0.8c-0.1-0.2-0.1-0.5-0.2-0.9c-0.1-0.9-0.2-1.5-0.4-1.9c-0.1,0-0.2,0-0.3,0
		c-0.4,0-0.7,0.1-0.9,0.3c-0.2,0.3-0.4,0.7-0.4,1.2s0.1,0.9,0.3,1.1s0.5,0.4,0.9,0.5l-0.1,1c-0.4-0.1-0.8-0.2-1.1-0.5
		s-0.5-0.5-0.6-0.9s-0.2-0.9-0.2-1.4s0.1-1,0.2-1.3s0.3-0.6,0.5-0.7s0.4-0.3,0.7-0.3c0.2,0,0.5-0.1,1-0.1h1.4c1,0,1.6,0,1.9-0.1
		s0.5-0.1,0.7-0.3v1.1C229.8,112.2,229.6,112.2,229.3,112.3z M226.9,112.3c0.2,0.4,0.3,1,0.4,1.7c0.1,0.4,0.1,0.7,0.2,0.9
		s0.2,0.3,0.3,0.4s0.3,0.1,0.5,0.1c0.3,0,0.5-0.1,0.7-0.3s0.3-0.5,0.3-0.9s-0.1-0.8-0.3-1.1s-0.4-0.5-0.7-0.7
		c-0.2-0.1-0.6-0.2-1.1-0.2L226.9,112.3L226.9,112.3z"/>
	<path fill="#FF0000" d="M230.1,108.7v1h-8.6v-1.1h3.1c-0.6-0.4-0.8-1-0.8-1.7c0-0.4,0.1-0.7,0.2-1.1s0.4-0.6,0.7-0.8s0.6-0.4,1-0.5
		s0.8-0.2,1.3-0.2c1.1,0,1.9,0.3,2.5,0.8s0.9,1.2,0.9,1.9c0,0.7-0.3,1.3-0.9,1.7C229.5,108.7,230.1,108.7,230.1,108.7z M226.9,108.7
		c0.7,0,1.3-0.1,1.6-0.3c0.5-0.3,0.8-0.8,0.8-1.3s-0.2-0.9-0.6-1.2s-1-0.5-1.8-0.5s-1.4,0.2-1.8,0.5s-0.6,0.7-0.6,1.2
		s0.2,0.9,0.6,1.2S226.1,108.7,226.9,108.7z"/>
	<path fill="#FF0000" d="M228.2,103.4l-0.2-1c0.4-0.1,0.7-0.2,1-0.5s0.3-0.6,0.3-1.1s-0.1-0.8-0.3-1.1s-0.4-0.4-0.7-0.4
		c-0.2,0-0.4,0.1-0.6,0.3c-0.1,0.1-0.2,0.5-0.4,1.1c-0.2,0.8-0.4,1.3-0.5,1.6s-0.3,0.5-0.6,0.7s-0.5,0.2-0.8,0.2s-0.5-0.1-0.8-0.2
		s-0.4-0.3-0.6-0.5c-0.1-0.2-0.2-0.4-0.3-0.7s-0.1-0.6-0.1-0.9c0-0.5,0.1-0.9,0.2-1.3s0.3-0.6,0.6-0.8s0.6-0.3,1-0.4l0.1,1
		c-0.3,0-0.6,0.2-0.8,0.4s-0.3,0.5-0.3,1s0.1,0.8,0.2,1s0.3,0.3,0.6,0.3c0.1,0,0.3,0,0.4-0.1c0.1-0.1,0.2-0.2,0.3-0.4
		c0-0.1,0.1-0.4,0.3-0.9c0.2-0.7,0.4-1.3,0.5-1.6s0.3-0.5,0.6-0.7s0.5-0.3,0.9-0.3s0.7,0.1,1,0.3s0.6,0.5,0.7,0.9s0.3,0.8,0.3,1.3
		c0,0.8-0.2,1.4-0.5,1.8S228.9,103.3,228.2,103.4z"/>
	<path fill="#FF0000" d="M226.9,97.4c-1.2,0-2-0.3-2.6-1c-0.5-0.5-0.7-1.2-0.7-2c0-0.9,0.3-1.6,0.8-2.1s1.3-0.8,2.3-0.8
		c0.8,0,1.4,0.1,1.9,0.4s0.8,0.6,1.1,1s0.4,1,0.4,1.5c0,0.9-0.3,1.6-0.8,2.1S228,97.4,226.9,97.4z M226.9,96.3
		c0.8,0,1.4-0.2,1.8-0.5s0.6-0.8,0.6-1.3s-0.2-1-0.6-1.3s-1-0.5-1.8-0.5s-1.4,0.2-1.7,0.5s-0.6,0.8-0.6,1.3s0.2,1,0.6,1.3
		S226.1,96.3,226.9,96.3z"/>
	<path fill="#FF0000" d="M230.1,90.3h-8.6v-1.1h8.6V90.3z"/>
	<path fill="#FF0000" d="M230.1,83.5h-0.9c0.7,0.5,1.1,1.1,1.1,2c0,0.4-0.1,0.7-0.2,1s-0.3,0.6-0.5,0.7s-0.5,0.3-0.8,0.3
		c-0.2,0-0.5,0.1-1,0.1h-3.9v-1.1h3.5c0.6,0,0.9,0,1.1-0.1c0.3-0.1,0.5-0.2,0.7-0.4s0.2-0.5,0.2-0.8s-0.1-0.6-0.2-0.9
		s-0.4-0.5-0.7-0.6s-0.7-0.2-1.2-0.2H224v-1.1h6.2v1.1H230.1z"/>
	<path fill="#FF0000" d="M229.1,78.7l0.9-0.2c0.1,0.3,0.1,0.6,0.1,0.8c0,0.4-0.1,0.7-0.2,0.9s-0.3,0.4-0.5,0.4s-0.6,0.1-1.2,0.1
		h-3.6v0.8h-0.8v-0.8h-1.5l-0.6-1h2.2v-1.1h0.8v1.1h3.6c0.3,0,0.5,0,0.6-0.1s0.2-0.1,0.2-0.2s0.1-0.2,0.1-0.4
		C229.2,79,229.1,78.8,229.1,78.7z"/>
	<path fill="#FF0000" d="M228.1,73.4l0.1-1.1c0.6,0.2,1.1,0.5,1.5,1s0.5,1.1,0.5,1.8c0,0.9-0.3,1.6-0.8,2.2S228,78,227,78
		s-1.9-0.3-2.4-0.8s-0.9-1.2-0.9-2.1c0-0.8,0.3-1.5,0.8-2s1.4-0.8,2.4-0.8c0.1,0,0.2,0,0.3,0v4.6c0.7,0,1.2-0.2,1.6-0.6
		s0.5-0.8,0.5-1.3c0-0.4-0.1-0.7-0.3-1S228.5,73.5,228.1,73.4z M226.3,76.8v-3.5c-0.5,0-0.9,0.2-1.2,0.4c-0.4,0.3-0.6,0.8-0.6,1.3
		s0.2,0.9,0.5,1.2S225.8,76.8,226.3,76.8z"/>
</g>
<rect x="13.5" y="128" fill="none" width="49.4" height="14.2"/>
<g>
	<path fill="#FF0000" d="M14.3,138.3v-8.6h1.1v8.6H14.3z"/>
</g>
<g>
	<path fill="#FF0000" d="M17,130.9v-1.2H18v1.2H17z M17,138.3v-6.2H18v6.2H17z"/>
</g>
<g>
	<path fill="#FF0000" d="M19.5,138.8l1,0.2c0,0.3,0.2,0.5,0.4,0.7c0.3,0.2,0.6,0.3,1.1,0.3c0.5,0,0.9-0.1,1.1-0.3s0.4-0.5,0.5-0.8
		c0.1-0.2,0.1-0.7,0.1-1.4c-0.5,0.5-1,0.8-1.7,0.8c-0.9,0-1.5-0.3-2-0.9s-0.7-1.4-0.7-2.2c0-0.6,0.1-1.1,0.3-1.6s0.5-0.9,0.9-1.2
		s0.9-0.4,1.4-0.4c0.7,0,1.3,0.3,1.8,0.9v-0.8h1v5.4c0,1-0.1,1.7-0.3,2.1s-0.5,0.7-0.9,1s-1,0.4-1.6,0.4c-0.7,0-1.3-0.2-1.8-0.5
		S19.4,139.5,19.5,138.8z M20.3,135.1c0,0.8,0.2,1.4,0.5,1.8s0.7,0.6,1.2,0.6c0.5,0,0.9-0.2,1.2-0.6s0.5-1,0.5-1.8
		c0-0.8-0.2-1.3-0.5-1.7s-0.7-0.6-1.2-0.6c-0.5,0-0.9,0.2-1.2,0.6S20.3,134.3,20.3,135.1z"/>
</g>
<g>
	<path fill="#FF0000" d="M26.3,138.3v-8.6h1.1v3.1c0.5-0.6,1.1-0.9,1.9-0.9c0.5,0,0.9,0.1,1.2,0.3s0.6,0.4,0.7,0.8s0.2,0.8,0.2,1.4
		v3.9h-1.1v-3.9c0-0.5-0.1-0.9-0.3-1.2s-0.6-0.4-1-0.4c-0.3,0-0.6,0.1-0.9,0.2s-0.5,0.4-0.6,0.7s-0.2,0.7-0.2,1.1v3.4H26.3z"/>
</g>
<g>
	<path fill="#FF0000" d="M35.3,137.3l0.2,0.9c-0.3,0.1-0.6,0.1-0.8,0.1c-0.4,0-0.7-0.1-0.9-0.2s-0.4-0.3-0.4-0.5s-0.1-0.6-0.1-1.2
		v-3.6h-0.8v-0.8h0.8v-1.5l1-0.6v2.2h1.1v0.8h-1.1v3.6c0,0.3,0,0.5,0.1,0.6s0.1,0.2,0.2,0.2s0.2,0.1,0.4,0.1
		C35,137.4,35.1,137.4,35.3,137.3z"/>
</g>
<g>
	<path fill="#FF0000" d="M39.6,138.3v-8.6h1.1v8.6H39.6z"/>
</g>
<g>
	<path fill="#FF0000" d="M46.6,136.3l1.1,0.1c-0.2,0.6-0.5,1.1-1,1.5s-1.1,0.5-1.8,0.5c-0.9,0-1.6-0.3-2.2-0.8s-0.8-1.3-0.8-2.4
		c0-1,0.3-1.9,0.8-2.4s1.2-0.9,2.1-0.9c0.8,0,1.5,0.3,2,0.8s0.8,1.4,0.8,2.4c0,0.1,0,0.2,0,0.3h-4.6c0,0.7,0.2,1.2,0.6,1.6
		s0.8,0.5,1.3,0.5c0.4,0,0.7-0.1,1-0.3S46.4,136.7,46.6,136.3z M43.1,134.6h3.5c0-0.5-0.2-0.9-0.4-1.2c-0.3-0.4-0.8-0.6-1.3-0.6
		c-0.5,0-0.9,0.2-1.2,0.5S43.2,134,43.1,134.6z"/>
</g>
<g>
	<path fill="#FF0000" d="M50.4,138.3l-2.4-6.2h1.1l1.3,3.7c0.1,0.4,0.3,0.8,0.4,1.3c0.1-0.3,0.2-0.7,0.4-1.2l1.4-3.8h1.1l-2.4,6.2
		H50.4z"/>
</g>
<g>
	<path fill="#FF0000" d="M58.6,136.3l1.1,0.1c-0.2,0.6-0.5,1.1-1,1.5s-1.1,0.5-1.8,0.5c-0.9,0-1.6-0.3-2.2-0.8s-0.8-1.3-0.8-2.4
		c0-1,0.3-1.9,0.8-2.4s1.2-0.9,2.1-0.9c0.8,0,1.5,0.3,2,0.8s0.8,1.4,0.8,2.4c0,0.1,0,0.2,0,0.3h-4.6c0,0.7,0.2,1.2,0.6,1.6
		s0.8,0.5,1.3,0.5c0.4,0,0.7-0.1,1-0.3S58.5,136.7,58.6,136.3z M55.2,134.6h3.5c0-0.5-0.2-0.9-0.4-1.2c-0.3-0.4-0.8-0.6-1.3-0.6
		c-0.5,0-0.9,0.2-1.2,0.5S55.2,134,55.2,134.6z"/>
</g>
<g>
	<path fill="#FF0000" d="M61,138.3v-8.6h1.1v8.6H61z"/>
</g>
<rect x="28.7" y="155.5" fill="none" width="60.7" height="14.2"/>
<g>
	<path fill="#FF0000" d="M30.7,165.8l-1.9-6.2h1.1l1,3.6l0.4,1.3c0-0.1,0.1-0.5,0.3-1.3l1-3.6h1.1l0.9,3.6l0.3,1.2l0.4-1.2l1.1-3.6
		h1l-1.9,6.2h-1.1l-1-3.7L33,161l-1.3,4.8H30.7z"/>
	<path fill="#FF0000" d="M38.2,158.4v-1.2h1.1v1.2H38.2z M38.2,165.8v-6.2h1.1v6.2H38.2z"/>
	<path fill="#FF0000" d="M40.9,165.8v-6.2h0.9v0.9c0.5-0.7,1.1-1,2-1c0.4,0,0.7,0.1,1,0.2s0.5,0.3,0.7,0.5s0.3,0.5,0.3,0.8
		c0,0.2,0.1,0.5,0.1,1v3.8h-1.1V162c0-0.4,0-0.8-0.1-1s-0.2-0.4-0.4-0.5s-0.5-0.2-0.7-0.2c-0.4,0-0.8,0.1-1.2,0.4s-0.5,0.8-0.5,1.6
		v3.4H40.9z"/>
	<path fill="#FF0000" d="M51.6,165.8V165c-0.4,0.6-1,0.9-1.7,0.9c-0.5,0-1-0.1-1.4-0.4s-0.7-0.7-1-1.1s-0.3-1.1-0.3-1.7
		c0-0.6,0.1-1.2,0.3-1.7s0.5-0.9,0.9-1.2s0.9-0.4,1.4-0.4c0.4,0,0.7,0.1,1,0.2s0.5,0.4,0.7,0.6v-3.1h1v8.6H51.6z M48.2,162.7
		c0,0.8,0.2,1.4,0.5,1.8s0.7,0.6,1.2,0.6c0.5,0,0.9-0.2,1.2-0.6s0.5-1,0.5-1.7c0-0.9-0.2-1.5-0.5-1.9s-0.7-0.6-1.2-0.6
		c-0.5,0-0.9,0.2-1.2,0.6S48.2,161.9,48.2,162.7z"/>
	<path fill="#FF0000" d="M62.8,164.8v1h-5.7c0-0.3,0-0.5,0.1-0.7c0.1-0.4,0.4-0.8,0.7-1.1s0.8-0.8,1.4-1.3c0.9-0.8,1.6-1.4,1.9-1.8
		s0.5-0.9,0.5-1.3c0-0.4-0.1-0.8-0.4-1.1s-0.7-0.4-1.2-0.4c-0.5,0-0.9,0.2-1.2,0.5s-0.5,0.7-0.5,1.3l-1.1-0.1
		c0.1-0.8,0.4-1.4,0.8-1.8s1.1-0.6,2-0.6c0.8,0,1.5,0.2,2,0.7s0.7,1,0.7,1.7c0,0.3-0.1,0.7-0.2,1s-0.4,0.7-0.7,1s-0.9,0.9-1.6,1.5
		c-0.6,0.5-1,0.9-1.2,1.1s-0.3,0.4-0.4,0.6H62.8z"/>
	<path fill="#FF0000" d="M63.9,161.6c0-1,0.1-1.8,0.3-2.5s0.5-1.1,0.9-1.4s0.9-0.5,1.6-0.5c0.5,0,0.9,0.1,1.2,0.3s0.6,0.5,0.9,0.8
		s0.4,0.8,0.5,1.3s0.2,1.2,0.2,2c0,1-0.1,1.8-0.3,2.4s-0.5,1.1-0.9,1.4s-0.9,0.5-1.6,0.5c-0.8,0-1.5-0.3-2-0.9
		C64.2,164.3,63.9,163.2,63.9,161.6z M65,161.6c0,1.4,0.2,2.3,0.5,2.8s0.7,0.7,1.2,0.7s0.9-0.2,1.2-0.7s0.5-1.4,0.5-2.8
		c0-1.4-0.2-2.4-0.5-2.8s-0.7-0.7-1.2-0.7c-0.5,0-0.9,0.2-1.2,0.6C65.2,159.2,65,160.2,65,161.6z"/>
	<path fill="#FF0000" d="M78.3,163.5l1,0.1c-0.1,0.7-0.4,1.3-0.9,1.7s-1,0.6-1.7,0.6c-0.9,0-1.5-0.3-2.1-0.8s-0.8-1.4-0.8-2.4
		c0-0.7,0.1-1.3,0.3-1.8s0.6-0.9,1-1.1s1-0.4,1.5-0.4c0.7,0,1.2,0.2,1.7,0.5s0.7,0.8,0.8,1.5l-1,0.2c-0.1-0.4-0.3-0.7-0.5-0.9
		s-0.5-0.3-0.9-0.3c-0.5,0-1,0.2-1.3,0.6s-0.5,1-0.5,1.8c0,0.8,0.2,1.4,0.5,1.8s0.7,0.6,1.3,0.6c0.4,0,0.8-0.1,1-0.4
		S78.2,164.1,78.3,163.5z"/>
	<path fill="#FF0000" d="M80.2,165.8v-6.2h0.9v0.9c0.2-0.3,0.5-0.5,0.8-0.7s0.7-0.3,1.1-0.3c0.5,0,0.8,0.1,1.1,0.3s0.5,0.5,0.6,0.8
		c0.5-0.7,1.1-1.1,1.9-1.1c0.6,0,1.1,0.2,1.4,0.5s0.5,0.9,0.5,1.6v4.3h-1v-3.9c0-0.4,0-0.7-0.1-0.9s-0.2-0.3-0.4-0.4
		s-0.4-0.2-0.6-0.2c-0.4,0-0.8,0.1-1.1,0.4s-0.4,0.8-0.4,1.4v3.6h-1.1v-4c0-0.5-0.1-0.8-0.3-1.1s-0.5-0.4-0.8-0.4
		c-0.3,0-0.6,0.1-0.8,0.2s-0.4,0.4-0.5,0.7s-0.2,0.7-0.2,1.3v3.2H80.2z"/>
</g>
<rect x="68.9" y="183" fill="none" width="48" height="14.2"/>
<g>
	<path fill="#FF0000" d="M70.9,193.3l-1.9-6.2h1.1l1,3.6l0.4,1.3c0-0.1,0.1-0.5,0.3-1.3l1-3.6h1.1l0.9,3.6l0.3,1.2l0.4-1.2l1.1-3.6
		h1l-1.9,6.2h-1.1l-1-3.7l-0.2-1.1l-1.3,4.8H70.9z"/>
	<path fill="#FF0000" d="M78.4,186v-1.2h1.1v1.2H78.4z M78.4,193.3v-6.2h1.1v6.2H78.4z"/>
	<path fill="#FF0000" d="M81.1,193.3v-6.2H82v0.9c0.5-0.7,1.1-1,2-1c0.4,0,0.7,0.1,1,0.2s0.5,0.3,0.7,0.5s0.3,0.5,0.3,0.8
		c0,0.2,0.1,0.5,0.1,1v3.8h-1.1v-3.8c0-0.4,0-0.8-0.1-1s-0.2-0.4-0.4-0.5s-0.5-0.2-0.7-0.2c-0.4,0-0.8,0.1-1.2,0.4s-0.5,0.8-0.5,1.6
		v3.4H81.1z"/>
	<path fill="#FF0000" d="M91.8,193.3v-0.8c-0.4,0.6-1,0.9-1.7,0.9c-0.5,0-1-0.1-1.4-0.4s-0.7-0.7-1-1.1s-0.3-1.1-0.3-1.7
		c0-0.6,0.1-1.2,0.3-1.7s0.5-0.9,0.9-1.2s0.9-0.4,1.4-0.4c0.4,0,0.7,0.1,1,0.2s0.5,0.4,0.7,0.6v-3.1h1v8.6H91.8z M88.4,190.2
		c0,0.8,0.2,1.4,0.5,1.8s0.7,0.6,1.2,0.6c0.5,0,0.9-0.2,1.2-0.6s0.5-1,0.5-1.7c0-0.9-0.2-1.5-0.5-1.9s-0.7-0.6-1.2-0.6
		c-0.5,0-0.9,0.2-1.2,0.6S88.4,189.4,88.4,190.2z"/>
	<path fill="#FF0000" d="M103,192.3v1h-5.7c0-0.3,0-0.5,0.1-0.7c0.1-0.4,0.4-0.8,0.7-1.1s0.8-0.8,1.4-1.3c0.9-0.8,1.6-1.4,1.9-1.8
		s0.5-0.9,0.5-1.3c0-0.4-0.1-0.8-0.4-1.1s-0.7-0.4-1.2-0.4c-0.5,0-0.9,0.2-1.2,0.5s-0.5,0.7-0.5,1.3l-1.1-0.1
		c0.1-0.8,0.4-1.4,0.8-1.8s1.1-0.6,2-0.6c0.8,0,1.5,0.2,2,0.7s0.7,1,0.7,1.7c0,0.3-0.1,0.7-0.2,1s-0.4,0.7-0.7,1s-0.9,0.9-1.6,1.5
		c-0.6,0.5-1,0.9-1.2,1.1s-0.3,0.4-0.4,0.6H103z"/>
	<path fill="#FF0000" d="M107.8,193.3v-6.2h0.9v0.9c0.2-0.3,0.5-0.5,0.8-0.7s0.7-0.3,1.1-0.3c0.5,0,0.8,0.1,1.1,0.3s0.5,0.5,0.6,0.8
		c0.5-0.7,1.1-1.1,1.9-1.1c0.6,0,1.1,0.2,1.4,0.5s0.5,0.9,0.5,1.6v4.3h-1v-3.9c0-0.4,0-0.7-0.1-0.9s-0.2-0.3-0.4-0.4
		s-0.4-0.2-0.6-0.2c-0.4,0-0.8,0.1-1.1,0.4s-0.4,0.8-0.4,1.4v3.6h-1.1v-4c0-0.5-0.1-0.8-0.3-1.1s-0.5-0.4-0.8-0.4
		c-0.3,0-0.6,0.1-0.8,0.2s-0.4,0.4-0.5,0.7s-0.2,0.7-0.2,1.3v3.2H107.8z"/>
</g>
<rect x="51.6" y="210.6" fill="none" width="93.9" height="14.2"/>
<g>
	<path fill="#FF0000" d="M54.7,219.9l0.2,0.9c-0.3,0.1-0.6,0.1-0.8,0.1c-0.4,0-0.7-0.1-0.9-0.2s-0.4-0.3-0.4-0.5s-0.1-0.6-0.1-1.2
		v-3.6h-0.8v-0.8h0.8v-1.5l1-0.6v2.2h1.1v0.8h-1.1v3.6c0,0.3,0,0.5,0.1,0.6s0.1,0.2,0.2,0.2s0.2,0.1,0.4,0.1
		C54.3,220,54.5,220,54.7,219.9z"/>
</g>
<g>
	<path fill="#FF0000" d="M60,218.9L61,219c-0.2,0.6-0.5,1.1-1,1.5S59,221,58.3,221c-0.9,0-1.6-0.3-2.2-0.8s-0.8-1.3-0.8-2.4
		c0-1,0.3-1.9,0.8-2.4s1.2-0.9,2.1-0.9c0.8,0,1.5,0.3,2,0.8s0.8,1.4,0.8,2.4c0,0.1,0,0.2,0,0.3h-4.6c0,0.7,0.2,1.2,0.6,1.6
		s0.8,0.5,1.3,0.5c0.4,0,0.7-0.1,1-0.3S59.8,219.3,60,218.9z M56.5,217.2H60c0-0.5-0.2-0.9-0.4-1.2c-0.3-0.4-0.8-0.6-1.3-0.6
		c-0.5,0-0.9,0.2-1.2,0.5S56.5,216.6,56.5,217.2z"/>
</g>
<g>
	<path fill="#FF0000" d="M62.4,220.9v-6.2h0.9v0.9c0.2-0.3,0.5-0.5,0.8-0.7s0.7-0.3,1.1-0.3c0.5,0,0.8,0.1,1.1,0.3s0.5,0.5,0.6,0.8
		c0.5-0.7,1.1-1.1,1.9-1.1c0.6,0,1.1,0.2,1.4,0.5s0.5,0.9,0.5,1.6v4.3h-1V217c0-0.4,0-0.7-0.1-0.9s-0.2-0.3-0.4-0.4
		s-0.4-0.2-0.6-0.2c-0.4,0-0.8,0.1-1.1,0.4s-0.4,0.8-0.4,1.4v3.6h-1.1v-4c0-0.5-0.1-0.8-0.3-1.1s-0.5-0.4-0.8-0.4
		c-0.3,0-0.6,0.1-0.8,0.2s-0.4,0.4-0.5,0.7s-0.2,0.7-0.2,1.3v3.2H62.4z"/>
</g>
<g>
	<path fill="#FF0000" d="M72.4,223.3v-8.6h1v0.8c0.2-0.3,0.5-0.6,0.8-0.7s0.6-0.2,1-0.2c0.5,0,1,0.1,1.4,0.4s0.7,0.7,0.9,1.2
		s0.3,1,0.3,1.6c0,0.6-0.1,1.2-0.3,1.7s-0.6,0.9-1,1.2s-0.9,0.4-1.4,0.4c-0.4,0-0.7-0.1-0.9-0.2s-0.5-0.3-0.7-0.6v3H72.4z
		 M73.3,217.8c0,0.8,0.2,1.4,0.5,1.8s0.7,0.6,1.2,0.6c0.5,0,0.9-0.2,1.2-0.6s0.5-1,0.5-1.8c0-0.8-0.2-1.4-0.5-1.8s-0.7-0.6-1.2-0.6
		c-0.4,0-0.8,0.2-1.2,0.6S73.3,217,73.3,217.8z"/>
</g>
<g>
	<path fill="#FF0000" d="M83.3,218.9l1.1,0.1c-0.2,0.6-0.5,1.1-1,1.5s-1.1,0.5-1.8,0.5c-0.9,0-1.6-0.3-2.2-0.8s-0.8-1.3-0.8-2.4
		c0-1,0.3-1.9,0.8-2.4s1.2-0.9,2.1-0.9c0.8,0,1.5,0.3,2,0.8s0.8,1.4,0.8,2.4c0,0.1,0,0.2,0,0.3h-4.6c0,0.7,0.2,1.2,0.6,1.6
		s0.8,0.5,1.3,0.5c0.4,0,0.7-0.1,1-0.3S83.1,219.3,83.3,218.9z M79.8,217.2h3.5c0-0.5-0.2-0.9-0.4-1.2c-0.3-0.4-0.8-0.6-1.3-0.6
		c-0.5,0-0.9,0.2-1.2,0.5S79.9,216.6,79.8,217.2z"/>
</g>
<g>
	<path fill="#FF0000" d="M85.7,220.9v-6.2h0.9v0.9c0.2-0.4,0.5-0.7,0.7-0.9s0.4-0.2,0.7-0.2c0.4,0,0.7,0.1,1.1,0.3l-0.4,1
		c-0.3-0.2-0.5-0.2-0.8-0.2c-0.2,0-0.4,0.1-0.6,0.2s-0.3,0.3-0.4,0.6c-0.1,0.4-0.2,0.8-0.2,1.2v3.3H85.7z"/>
</g>
<g>
	<path fill="#FF0000" d="M93.6,220.1c-0.4,0.3-0.8,0.6-1.1,0.7s-0.7,0.2-1.2,0.2c-0.7,0-1.2-0.2-1.6-0.5s-0.6-0.8-0.6-1.3
		c0-0.3,0.1-0.6,0.2-0.8s0.3-0.5,0.5-0.6s0.5-0.3,0.8-0.3c0.2-0.1,0.5-0.1,0.9-0.2c0.9-0.1,1.5-0.2,1.9-0.4c0-0.1,0-0.2,0-0.3
		c0-0.4-0.1-0.7-0.3-0.9c-0.3-0.2-0.7-0.4-1.2-0.4c-0.5,0-0.9,0.1-1.1,0.3s-0.4,0.5-0.5,0.9l-1-0.1c0.1-0.4,0.2-0.8,0.5-1.1
		s0.5-0.5,0.9-0.6s0.9-0.2,1.4-0.2c0.5,0,1,0.1,1.3,0.2s0.6,0.3,0.7,0.5s0.3,0.4,0.3,0.7c0,0.2,0.1,0.5,0.1,1v1.4c0,1,0,1.6,0.1,1.9
		s0.1,0.5,0.3,0.7h-1.1C93.8,220.7,93.7,220.4,93.6,220.1z M93.6,217.8c-0.4,0.2-1,0.3-1.7,0.4c-0.4,0.1-0.7,0.1-0.9,0.2
		s-0.3,0.2-0.4,0.3s-0.1,0.3-0.1,0.5c0,0.3,0.1,0.5,0.3,0.7s0.5,0.3,0.9,0.3c0.4,0,0.8-0.1,1.1-0.3s0.5-0.4,0.7-0.7
		c0.1-0.2,0.2-0.6,0.2-1.1V217.8z"/>
</g>
<g>
	<path fill="#FF0000" d="M98.6,219.9l0.2,0.9c-0.3,0.1-0.6,0.1-0.8,0.1c-0.4,0-0.7-0.1-0.9-0.2s-0.4-0.3-0.4-0.5s-0.1-0.6-0.1-1.2
		v-3.6h-0.8v-0.8h0.8v-1.5l1-0.6v2.2h1.1v0.8h-1.1v3.6c0,0.3,0,0.5,0.1,0.6s0.1,0.2,0.2,0.2s0.2,0.1,0.4,0.1
		C98.2,220,98.4,220,98.6,219.9z"/>
</g>
<g>
	<path fill="#FF0000" d="M103.7,220.9V220c-0.5,0.7-1.1,1.1-2,1.1c-0.4,0-0.7-0.1-1-0.2s-0.6-0.3-0.7-0.5s-0.3-0.5-0.3-0.8
		c0-0.2-0.1-0.5-0.1-1v-3.9h1.1v3.5c0,0.6,0,0.9,0.1,1.1c0.1,0.3,0.2,0.5,0.4,0.7s0.5,0.2,0.8,0.2s0.6-0.1,0.9-0.2s0.5-0.4,0.6-0.7
		s0.2-0.7,0.2-1.2v-3.3h1.1v6.2H103.7z"/>
</g>
<g>
	<path fill="#FF0000" d="M106.3,220.9v-6.2h0.9v0.9c0.2-0.4,0.5-0.7,0.7-0.9s0.4-0.2,0.7-0.2c0.4,0,0.7,0.1,1.1,0.3l-0.4,1
		c-0.3-0.2-0.5-0.2-0.8-0.2c-0.2,0-0.4,0.1-0.6,0.2s-0.3,0.3-0.4,0.6c-0.1,0.4-0.2,0.8-0.2,1.2v3.3H106.3z"/>
</g>
<g>
	<path fill="#FF0000" d="M114.5,218.9l1.1,0.1c-0.2,0.6-0.5,1.1-1,1.5s-1.1,0.5-1.8,0.5c-0.9,0-1.6-0.3-2.2-0.8s-0.8-1.3-0.8-2.4
		c0-1,0.3-1.9,0.8-2.4s1.2-0.9,2.1-0.9c0.8,0,1.5,0.3,2,0.8s0.8,1.4,0.8,2.4c0,0.1,0,0.2,0,0.3H111c0,0.7,0.2,1.2,0.6,1.6
		s0.8,0.5,1.3,0.5c0.4,0,0.7-0.1,1-0.3S114.4,219.3,114.5,218.9z M111.1,217.2h3.5c0-0.5-0.2-0.9-0.4-1.2c-0.3-0.4-0.8-0.6-1.3-0.6
		c-0.5,0-0.9,0.2-1.2,0.5S111.1,216.6,111.1,217.2z"/>
</g>
<g>
	<path fill="#FF0000" d="M120,216.6c0-1,0.1-1.8,0.3-2.5s0.5-1.1,0.9-1.4s0.9-0.5,1.6-0.5c0.5,0,0.9,0.1,1.2,0.3s0.6,0.5,0.9,0.8
		s0.4,0.8,0.5,1.3s0.2,1.2,0.2,2c0,1-0.1,1.8-0.3,2.4s-0.5,1.1-0.9,1.4s-0.9,0.5-1.6,0.5c-0.8,0-1.5-0.3-2-0.9
		C120.3,219.4,120,218.3,120,216.6z M121.1,216.6c0,1.4,0.2,2.3,0.5,2.8s0.7,0.7,1.2,0.7s0.9-0.2,1.2-0.7s0.5-1.4,0.5-2.8
		c0-1.4-0.2-2.4-0.5-2.8s-0.7-0.7-1.2-0.7c-0.5,0-0.9,0.2-1.2,0.6C121.2,214.3,121.1,215.2,121.1,216.6z"/>
</g>
<g>
	<path fill="#FF0000" d="M134.3,218.6l1,0.1c-0.1,0.7-0.4,1.3-0.9,1.7s-1,0.6-1.7,0.6c-0.9,0-1.5-0.3-2.1-0.8s-0.8-1.4-0.8-2.4
		c0-0.7,0.1-1.3,0.3-1.8s0.6-0.9,1-1.1s1-0.4,1.5-0.4c0.7,0,1.2,0.2,1.7,0.5s0.7,0.8,0.8,1.5l-1,0.2c-0.1-0.4-0.3-0.7-0.5-0.9
		s-0.5-0.3-0.9-0.3c-0.5,0-1,0.2-1.3,0.6s-0.5,1-0.5,1.8c0,0.8,0.2,1.4,0.5,1.8s0.7,0.6,1.3,0.6c0.4,0,0.8-0.1,1-0.4
		S134.3,219.1,134.3,218.6z"/>
</g>
<g>
	<path fill="#FF0000" d="M136.3,220.9v-6.2h0.9v0.9c0.2-0.3,0.5-0.5,0.8-0.7s0.7-0.3,1.1-0.3c0.5,0,0.8,0.1,1.1,0.3s0.5,0.5,0.6,0.8
		c0.5-0.7,1.1-1.1,1.9-1.1c0.6,0,1.1,0.2,1.4,0.5s0.5,0.9,0.5,1.6v4.3h-1V217c0-0.4,0-0.7-0.1-0.9s-0.2-0.3-0.4-0.4
		s-0.4-0.2-0.6-0.2c-0.4,0-0.8,0.1-1.1,0.4s-0.4,0.8-0.4,1.4v3.6H140v-4c0-0.5-0.1-0.8-0.3-1.1s-0.5-0.4-0.8-0.4
		c-0.3,0-0.6,0.1-0.8,0.2s-0.4,0.4-0.5,0.7s-0.2,0.7-0.2,1.3v3.2H136.3z"/>
</g>
<rect x="86.1" y="238.1" fill="none" width="84.6" height="14.2"/>
<g>
	<path fill="#FF0000" d="M89.2,247.5l0.2,0.9c-0.3,0.1-0.6,0.1-0.8,0.1c-0.4,0-0.7-0.1-0.9-0.2s-0.4-0.3-0.4-0.5s-0.1-0.6-0.1-1.2
		V243h-0.8v-0.8h0.8v-1.5l1-0.6v2.2h1.1v0.8h-1.1v3.6c0,0.3,0,0.5,0.1,0.6s0.1,0.2,0.2,0.2s0.2,0.1,0.4,0.1
		C88.9,247.5,89,247.5,89.2,247.5z"/>
</g>
<g>
	<path fill="#FF0000" d="M94.5,246.4l1.1,0.1c-0.2,0.6-0.5,1.1-1,1.5s-1.1,0.5-1.8,0.5c-0.9,0-1.6-0.3-2.2-0.8s-0.8-1.3-0.8-2.4
		c0-1,0.3-1.9,0.8-2.4s1.2-0.9,2.1-0.9c0.8,0,1.5,0.3,2,0.8s0.8,1.4,0.8,2.4c0,0.1,0,0.2,0,0.3H91c0,0.7,0.2,1.2,0.6,1.6
		s0.8,0.5,1.3,0.5c0.4,0,0.7-0.1,1-0.3S94.3,246.8,94.5,246.4z M91,244.7h3.5c0-0.5-0.2-0.9-0.4-1.2c-0.3-0.4-0.8-0.6-1.3-0.6
		c-0.5,0-0.9,0.2-1.2,0.5S91.1,244.2,91,244.7z"/>
</g>
<g>
	<path fill="#FF0000" d="M96.9,248.4v-6.2h0.9v0.9c0.2-0.3,0.5-0.5,0.8-0.7s0.7-0.3,1.1-0.3c0.5,0,0.8,0.1,1.1,0.3s0.5,0.5,0.6,0.8
		c0.5-0.7,1.1-1.1,1.9-1.1c0.6,0,1.1,0.2,1.4,0.5s0.5,0.9,0.5,1.6v4.3h-1v-3.9c0-0.4,0-0.7-0.1-0.9s-0.2-0.3-0.4-0.4
		s-0.4-0.2-0.6-0.2c-0.4,0-0.8,0.1-1.1,0.4s-0.4,0.8-0.4,1.4v3.6h-1.1v-4c0-0.5-0.1-0.8-0.3-1.1s-0.5-0.4-0.8-0.4
		c-0.3,0-0.6,0.1-0.8,0.2s-0.4,0.4-0.5,0.7s-0.2,0.7-0.2,1.3v3.2H96.9z"/>
</g>
<g>
	<path fill="#FF0000" d="M106.9,250.8v-8.6h1v0.8c0.2-0.3,0.5-0.6,0.8-0.7s0.6-0.2,1-0.2c0.5,0,1,0.1,1.4,0.4s0.7,0.7,0.9,1.2
		s0.3,1,0.3,1.6c0,0.6-0.1,1.2-0.3,1.7s-0.6,0.9-1,1.2s-0.9,0.4-1.4,0.4c-0.4,0-0.7-0.1-0.9-0.2s-0.5-0.3-0.7-0.6v3H106.9z
		 M107.9,245.3c0,0.8,0.2,1.4,0.5,1.8s0.7,0.6,1.2,0.6c0.5,0,0.9-0.2,1.2-0.6s0.5-1,0.5-1.8c0-0.8-0.2-1.4-0.5-1.8s-0.7-0.6-1.2-0.6
		c-0.4,0-0.8,0.2-1.2,0.6S107.9,244.5,107.9,245.3z"/>
</g>
<g>
	<path fill="#FF0000" d="M117.8,246.4l1.1,0.1c-0.2,0.6-0.5,1.1-1,1.5s-1.1,0.5-1.8,0.5c-0.9,0-1.6-0.3-2.2-0.8s-0.8-1.3-0.8-2.4
		c0-1,0.3-1.9,0.8-2.4s1.2-0.9,2.1-0.9c0.8,0,1.5,0.3,2,0.8s0.8,1.4,0.8,2.4c0,0.1,0,0.2,0,0.3h-4.6c0,0.7,0.2,1.2,0.6,1.6
		s0.8,0.5,1.3,0.5c0.4,0,0.7-0.1,1-0.3S117.7,246.8,117.8,246.4z M114.4,244.7h3.5c0-0.5-0.2-0.9-0.4-1.2c-0.3-0.4-0.8-0.6-1.3-0.6
		c-0.5,0-0.9,0.2-1.2,0.5S114.4,244.2,114.4,244.7z"/>
</g>
<g>
	<path fill="#FF0000" d="M120.2,248.4v-6.2h0.9v0.9c0.2-0.4,0.5-0.7,0.7-0.9s0.4-0.2,0.7-0.2c0.4,0,0.7,0.1,1.1,0.3l-0.4,1
		c-0.3-0.2-0.5-0.2-0.8-0.2c-0.2,0-0.4,0.1-0.6,0.2s-0.3,0.3-0.4,0.6c-0.1,0.4-0.2,0.8-0.2,1.2v3.3H120.2z"/>
</g>
<g>
	<path fill="#FF0000" d="M128.2,247.6c-0.4,0.3-0.8,0.6-1.1,0.7s-0.7,0.2-1.2,0.2c-0.7,0-1.2-0.2-1.6-0.5s-0.6-0.8-0.6-1.3
		c0-0.3,0.1-0.6,0.2-0.8s0.3-0.5,0.5-0.6s0.5-0.3,0.8-0.3c0.2-0.1,0.5-0.1,0.9-0.2c0.9-0.1,1.5-0.2,1.9-0.4c0-0.1,0-0.2,0-0.3
		c0-0.4-0.1-0.7-0.3-0.9c-0.3-0.2-0.7-0.4-1.2-0.4c-0.5,0-0.9,0.1-1.1,0.3s-0.4,0.5-0.5,0.9l-1-0.1c0.1-0.4,0.2-0.8,0.5-1.1
		s0.5-0.5,0.9-0.6s0.9-0.2,1.4-0.2c0.5,0,1,0.1,1.3,0.2s0.6,0.3,0.7,0.5s0.3,0.4,0.3,0.7c0,0.2,0.1,0.5,0.1,1v1.4c0,1,0,1.6,0.1,1.9
		s0.1,0.5,0.3,0.7h-1.1C128.3,248.2,128.2,247.9,128.2,247.6z M128.1,245.3c-0.4,0.2-1,0.3-1.7,0.4c-0.4,0.1-0.7,0.1-0.9,0.2
		s-0.3,0.2-0.4,0.3s-0.1,0.3-0.1,0.5c0,0.3,0.1,0.5,0.3,0.7s0.5,0.3,0.9,0.3c0.4,0,0.8-0.1,1.1-0.3s0.5-0.4,0.7-0.7
		c0.1-0.2,0.2-0.6,0.2-1.1V245.3z"/>
</g>
<g>
	<path fill="#FF0000" d="M133.1,247.5l0.2,0.9c-0.3,0.1-0.6,0.1-0.8,0.1c-0.4,0-0.7-0.1-0.9-0.2s-0.4-0.3-0.4-0.5s-0.1-0.6-0.1-1.2
		V243h-0.8v-0.8h0.8v-1.5l1-0.6v2.2h1.1v0.8H132v3.6c0,0.3,0,0.5,0.1,0.6s0.1,0.2,0.2,0.2s0.2,0.1,0.4,0.1
		C132.8,247.5,132.9,247.5,133.1,247.5z"/>
</g>
<g>
	<path fill="#FF0000" d="M138.2,248.4v-0.9c-0.5,0.7-1.1,1.1-2,1.1c-0.4,0-0.7-0.1-1-0.2s-0.6-0.3-0.7-0.5s-0.3-0.5-0.3-0.8
		c0-0.2-0.1-0.5-0.1-1v-3.9h1.1v3.5c0,0.6,0,0.9,0.1,1.1c0.1,0.3,0.2,0.5,0.4,0.7s0.5,0.2,0.8,0.2s0.6-0.1,0.9-0.2s0.5-0.4,0.6-0.7
		s0.2-0.7,0.2-1.2v-3.3h1.1v6.2H138.2z"/>
</g>
<g>
	<path fill="#FF0000" d="M140.8,248.4v-6.2h0.9v0.9c0.2-0.4,0.5-0.7,0.7-0.9s0.4-0.2,0.7-0.2c0.4,0,0.7,0.1,1.1,0.3l-0.4,1
		c-0.3-0.2-0.5-0.2-0.8-0.2c-0.2,0-0.4,0.1-0.6,0.2s-0.3,0.3-0.4,0.6c-0.1,0.4-0.2,0.8-0.2,1.2v3.3H140.8z"/>
</g>
<g>
	<path fill="#FF0000" d="M149.1,246.4l1.1,0.1c-0.2,0.6-0.5,1.1-1,1.5s-1.1,0.5-1.8,0.5c-0.9,0-1.6-0.3-2.2-0.8s-0.8-1.3-0.8-2.4
		c0-1,0.3-1.9,0.8-2.4s1.2-0.9,2.1-0.9c0.8,0,1.5,0.3,2,0.8s0.8,1.4,0.8,2.4c0,0.1,0,0.2,0,0.3h-4.6c0,0.7,0.2,1.2,0.6,1.6
		s0.8,0.5,1.3,0.5c0.4,0,0.7-0.1,1-0.3S148.9,246.8,149.1,246.4z M145.6,244.7h3.5c0-0.5-0.2-0.9-0.4-1.2c-0.3-0.4-0.8-0.6-1.3-0.6
		c-0.5,0-0.9,0.2-1.2,0.5S145.6,244.2,145.6,244.7z"/>
</g>
<g>
	<path fill="#FF0000" d="M160.1,247.4v1h-5.7c0-0.3,0-0.5,0.1-0.7c0.1-0.4,0.4-0.8,0.7-1.1s0.8-0.8,1.4-1.3c0.9-0.8,1.6-1.4,1.9-1.8
		s0.5-0.9,0.5-1.3c0-0.4-0.1-0.8-0.4-1.1s-0.7-0.4-1.2-0.4c-0.5,0-0.9,0.2-1.2,0.5s-0.5,0.7-0.5,1.3l-1.1-0.1
		c0.1-0.8,0.4-1.4,0.8-1.8s1.1-0.6,2-0.6c0.8,0,1.5,0.2,2,0.7s0.7,1,0.7,1.7c0,0.3-0.1,0.7-0.2,1s-0.4,0.7-0.7,1s-0.9,0.9-1.6,1.5
		c-0.6,0.5-1,0.9-1.2,1.1s-0.3,0.4-0.4,0.6H160.1z"/>
</g>
<g>
	<path fill="#FF0000" d="M161.5,248.4v-6.2h0.9v0.9c0.2-0.3,0.5-0.5,0.8-0.7s0.7-0.3,1.1-0.3c0.5,0,0.8,0.1,1.1,0.3s0.5,0.5,0.6,0.8
		c0.5-0.7,1.1-1.1,1.9-1.1c0.6,0,1.1,0.2,1.4,0.5s0.5,0.9,0.5,1.6v4.3h-1v-3.9c0-0.4,0-0.7-0.1-0.9s-0.2-0.3-0.4-0.4
		s-0.4-0.2-0.6-0.2c-0.4,0-0.8,0.1-1.1,0.4s-0.4,0.8-0.4,1.4v3.6h-1.1v-4c0-0.5-0.1-0.8-0.3-1.1s-0.5-0.4-0.8-0.4
		c-0.3,0-0.6,0.1-0.8,0.2s-0.4,0.4-0.5,0.7s-0.2,0.7-0.2,1.3v3.2H161.5z"/>
</g>
<rect x="110.8" y="265.6" fill="none" width="86.4" height="14.2"/>
<g>
	<path fill="#FF0000" d="M111.6,275.9v-8.6h1.1v3.1c0.5-0.6,1.1-0.9,1.9-0.9c0.5,0,0.9,0.1,1.2,0.3s0.6,0.4,0.7,0.8s0.2,0.8,0.2,1.4
		v3.9h-1.1V272c0-0.5-0.1-0.9-0.3-1.2s-0.6-0.4-1-0.4c-0.3,0-0.6,0.1-0.9,0.2s-0.5,0.4-0.6,0.7s-0.2,0.7-0.2,1.1v3.4H111.6z"/>
</g>
<g>
	<path fill="#FF0000" d="M122.4,275.9V275c-0.5,0.7-1.1,1.1-2,1.1c-0.4,0-0.7-0.1-1-0.2s-0.6-0.3-0.7-0.5s-0.3-0.5-0.3-0.8
		c0-0.2-0.1-0.5-0.1-1v-3.9h1.1v3.5c0,0.6,0,0.9,0.1,1.1c0.1,0.3,0.2,0.5,0.4,0.7s0.5,0.2,0.8,0.2s0.6-0.1,0.9-0.2s0.5-0.4,0.6-0.7
		s0.2-0.7,0.2-1.2v-3.3h1.1v6.2H122.4z"/>
</g>
<g>
	<path fill="#FF0000" d="M125,275.9v-6.2h0.9v0.9c0.2-0.3,0.5-0.5,0.8-0.7s0.7-0.3,1.1-0.3c0.5,0,0.8,0.1,1.1,0.3s0.5,0.5,0.6,0.8
		c0.5-0.7,1.1-1.1,1.9-1.1c0.6,0,1.1,0.2,1.4,0.5s0.5,0.9,0.5,1.6v4.3h-1V272c0-0.4,0-0.7-0.1-0.9s-0.2-0.3-0.4-0.4
		s-0.4-0.2-0.6-0.2c-0.4,0-0.8,0.1-1.1,0.4s-0.4,0.8-0.4,1.4v3.6h-1.1v-4c0-0.5-0.1-0.8-0.3-1.1s-0.5-0.4-0.8-0.4
		c-0.3,0-0.6,0.1-0.8,0.2s-0.4,0.4-0.5,0.7s-0.2,0.7-0.2,1.3v3.2H125z"/>
</g>
<g>
	<path fill="#FF0000" d="M135,268.6v-1.2h1.1v1.2H135z M135,275.9v-6.2h1.1v6.2H135z"/>
</g>
<g>
	<path fill="#FF0000" d="M141.7,275.9v-0.8c-0.4,0.6-1,0.9-1.7,0.9c-0.5,0-1-0.1-1.4-0.4s-0.7-0.7-1-1.1s-0.3-1.1-0.3-1.7
		c0-0.6,0.1-1.2,0.3-1.7s0.5-0.9,0.9-1.2s0.9-0.4,1.4-0.4c0.4,0,0.7,0.1,1,0.2s0.5,0.4,0.7,0.6v-3.1h1v8.6H141.7z M138.3,272.8
		c0,0.8,0.2,1.4,0.5,1.8s0.7,0.6,1.2,0.6c0.5,0,0.9-0.2,1.2-0.6s0.5-1,0.5-1.7c0-0.9-0.2-1.5-0.5-1.9s-0.7-0.6-1.2-0.6
		c-0.5,0-0.9,0.2-1.2,0.6S138.3,272,138.3,272.8z"/>
</g>
<g>
	<path fill="#FF0000" d="M144.3,268.6v-1.2h1.1v1.2H144.3z M144.3,275.9v-6.2h1.1v6.2H144.3z"/>
</g>
<g>
	<path fill="#FF0000" d="M149.3,275l0.2,0.9c-0.3,0.1-0.6,0.1-0.8,0.1c-0.4,0-0.7-0.1-0.9-0.2s-0.4-0.3-0.4-0.5s-0.1-0.6-0.1-1.2
		v-3.6h-0.8v-0.8h0.8v-1.5l1-0.6v2.2h1.1v0.8h-1.1v3.6c0,0.3,0,0.5,0.1,0.6s0.1,0.2,0.2,0.2s0.2,0.1,0.4,0.1
		C148.9,275,149.1,275,149.3,275z"/>
</g>
<g>
	<path fill="#FF0000" d="M150.3,278.3l-0.1-1c0.2,0.1,0.4,0.1,0.6,0.1c0.2,0,0.4,0,0.6-0.1s0.3-0.2,0.3-0.3c0.1-0.1,0.2-0.4,0.3-0.8
		c0-0.1,0.1-0.1,0.1-0.3l-2.4-6.2h1.1l1.3,3.6c0.2,0.5,0.3,0.9,0.5,1.4c0.1-0.5,0.3-1,0.4-1.4l1.3-3.6h1.1l-2.4,6.3
		c-0.3,0.7-0.5,1.2-0.6,1.4c-0.2,0.3-0.4,0.6-0.6,0.8s-0.5,0.2-0.9,0.2C150.7,278.5,150.5,278.4,150.3,278.3z"/>
</g>
<g>
	<path fill="#FF0000" d="M159.6,275.9v-6.2h0.9v0.9c0.2-0.4,0.5-0.7,0.7-0.9s0.4-0.2,0.7-0.2c0.4,0,0.7,0.1,1.1,0.3l-0.4,1
		c-0.3-0.2-0.5-0.2-0.8-0.2c-0.2,0-0.4,0.1-0.6,0.2s-0.3,0.3-0.4,0.6c-0.1,0.4-0.2,0.8-0.2,1.2v3.3H159.6z"/>
</g>
<g>
	<path fill="#FF0000" d="M167.9,273.9l1.1,0.1c-0.2,0.6-0.5,1.1-1,1.5s-1.1,0.5-1.8,0.5c-0.9,0-1.6-0.3-2.2-0.8s-0.8-1.3-0.8-2.4
		c0-1,0.3-1.9,0.8-2.4s1.2-0.9,2.1-0.9c0.8,0,1.5,0.3,2,0.8s0.8,1.4,0.8,2.4c0,0.1,0,0.2,0,0.3h-4.6c0,0.7,0.2,1.2,0.6,1.6
		s0.8,0.5,1.3,0.5c0.4,0,0.7-0.1,1-0.3S167.7,274.4,167.9,273.9z M164.4,272.2h3.5c0-0.5-0.2-0.9-0.4-1.2c-0.3-0.4-0.8-0.6-1.3-0.6
		c-0.5,0-0.9,0.2-1.2,0.5S164.5,271.7,164.4,272.2z"/>
</g>
<g>
	<path fill="#FF0000" d="M170.3,275.9v-8.6h1.1v8.6H170.3z"/>
</g>
<g>
	<path fill="#FF0000" d="M177,275.2c-0.4,0.3-0.8,0.6-1.1,0.7s-0.7,0.2-1.2,0.2c-0.7,0-1.2-0.2-1.6-0.5s-0.6-0.8-0.6-1.3
		c0-0.3,0.1-0.6,0.2-0.8s0.3-0.5,0.5-0.6s0.5-0.3,0.8-0.3c0.2-0.1,0.5-0.1,0.9-0.2c0.9-0.1,1.5-0.2,1.9-0.4c0-0.1,0-0.2,0-0.3
		c0-0.4-0.1-0.7-0.3-0.9c-0.3-0.2-0.7-0.4-1.2-0.4c-0.5,0-0.9,0.1-1.1,0.3s-0.4,0.5-0.5,0.9l-1-0.1c0.1-0.4,0.2-0.8,0.5-1.1
		s0.5-0.5,0.9-0.6s0.9-0.2,1.4-0.2c0.5,0,1,0.1,1.3,0.2s0.6,0.3,0.7,0.5s0.3,0.4,0.3,0.7c0,0.2,0.1,0.5,0.1,1v1.4c0,1,0,1.6,0.1,1.9
		s0.1,0.5,0.3,0.7h-1.1C177.1,275.7,177.1,275.5,177,275.2z M176.9,272.8c-0.4,0.2-1,0.3-1.7,0.4c-0.4,0.1-0.7,0.1-0.9,0.2
		s-0.3,0.2-0.4,0.3s-0.1,0.3-0.1,0.5c0,0.3,0.1,0.5,0.3,0.7s0.5,0.3,0.9,0.3c0.4,0,0.8-0.1,1.1-0.3s0.5-0.4,0.7-0.7
		c0.1-0.2,0.2-0.6,0.2-1.1V272.8z"/>
</g>
<g>
	<path fill="#FF0000" d="M182,275l0.2,0.9c-0.3,0.1-0.6,0.1-0.8,0.1c-0.4,0-0.7-0.1-0.9-0.2s-0.4-0.3-0.4-0.5s-0.1-0.6-0.1-1.2v-3.6
		h-0.8v-0.8h0.8v-1.5l1-0.6v2.2h1.1v0.8h-1.1v3.6c0,0.3,0,0.5,0.1,0.6s0.1,0.2,0.2,0.2s0.2,0.1,0.4,0.1C181.6,275,181.8,275,182,275
		z"/>
</g>
<g>
	<path fill="#FF0000" d="M183,268.6v-1.2h1.1v1.2H183z M183,275.9v-6.2h1.1v6.2H183z"/>
</g>
<g>
	<path fill="#FF0000" d="M187.4,275.9l-2.4-6.2h1.1l1.3,3.7c0.1,0.4,0.3,0.8,0.4,1.3c0.1-0.3,0.2-0.7,0.4-1.2l1.4-3.8h1.1l-2.4,6.2
		H187.4z"/>
</g>
<g>
	<path fill="#FF0000" d="M195.6,273.9l1.1,0.1c-0.2,0.6-0.5,1.1-1,1.5s-1.1,0.5-1.8,0.5c-0.9,0-1.6-0.3-2.2-0.8s-0.8-1.3-0.8-2.4
		c0-1,0.3-1.9,0.8-2.4s1.2-0.9,2.1-0.9c0.8,0,1.5,0.3,2,0.8s0.8,1.4,0.8,2.4c0,0.1,0,0.2,0,0.3h-4.6c0,0.7,0.2,1.2,0.6,1.6
		s0.8,0.5,1.3,0.5c0.4,0,0.7-0.1,1-0.3S195.4,274.4,195.6,273.9z M192.1,272.2h3.5c0-0.5-0.2-0.9-0.4-1.2c-0.3-0.4-0.8-0.6-1.3-0.6
		c-0.5,0-0.9,0.2-1.2,0.5S192.2,271.7,192.1,272.2z"/>
</g>
</svg>
